<svg id="alarm" xmlns="http://www.w3.org/2000/svg" width="18.156" height="22.933" viewBox="0 0 18.156 22.933">
  <path id="Path" d="M18.024,17.66a12.77,12.77,0,0,1-1.684-6.2V7.647A7.462,7.462,0,0,0,9.078,0,7.462,7.462,0,0,0,1.815,7.647v3.806A12.771,12.771,0,0,1,.131,17.66a1,1,0,0,0-.014.964.9.9,0,0,0,.791.487H17.248a.9.9,0,0,0,.791-.487A1,1,0,0,0,18.024,17.66Z" transform="translate(0 0)" fill="#c8c8d3"/>
  <path id="Path-2" data-name="Path" d="M3.888,2.616A3.922,3.922,0,0,0,5.733,0H0A4.124,4.124,0,0,0,1.562,2.45,2.236,2.236,0,0,0,3.888,2.616Z" transform="translate(6.689 20.067)" fill="#c8c8d3"/>
</svg>
