<svg width="45" height="21" viewBox="0 0 45 21" fill="none" xmlns="http://www.w3.org/2000/svg">
<path d="M8.4641 3.34274C8.99143 2.66315 9.34922 1.75076 9.25492 0.818359C8.48299 0.857927 7.54101 1.3431 6.99566 2.02314C6.50595 2.60556 6.07257 3.55617 6.1856 4.44945C7.052 4.52688 7.91779 4.00322 8.4641 3.34274Z" fill="black"/>
<path d="M9.24604 4.62822C7.98764 4.55098 6.91768 5.36405 6.31669 5.36405C5.71544 5.36405 4.79515 4.66716 3.79981 4.68591C2.50432 4.70555 1.30226 5.46022 0.644848 6.66049C-0.707327 9.06166 0.288018 12.6234 1.60293 14.579C2.24144 15.5465 3.01109 16.6118 4.02507 16.5735C4.98315 16.5348 5.3587 15.9343 6.52323 15.9343C7.68697 15.9343 8.02526 16.5735 9.03941 16.5541C10.0912 16.5348 10.7487 15.5861 11.3872 14.6177C12.1198 13.5148 12.4196 12.4499 12.4384 12.3914C12.4195 12.372 10.4104 11.5778 10.3918 9.19668C10.3728 7.2029 11.9692 6.25445 12.0443 6.19568C11.143 4.82209 9.73435 4.66716 9.24604 4.62822Z" fill="black"/>
<path d="M20.2043 1.92383C22.9394 1.92383 24.8439 3.86632 24.8439 6.69445C24.8439 9.53266 22.9001 11.4853 20.1357 11.4853H17.1074V16.447H14.9194V1.92383H20.2043ZM17.1073 9.59305H19.6178C21.5228 9.59305 22.6069 8.53636 22.6069 6.70454C22.6069 4.8729 21.5228 3.82613 19.6276 3.82613H17.1073V9.59305Z" fill="black"/>
<path d="M25.415 13.4398C25.415 11.5878 26.7924 10.4505 29.2348 10.3097L32.0479 10.1386V9.32346C32.0479 8.1459 31.2762 7.44135 29.987 7.44135C28.7656 7.44135 28.0037 8.04514 27.8183 8.99133H25.8255C25.9427 7.07894 27.5251 5.66992 30.065 5.66992C32.5559 5.66992 34.1482 7.02864 34.1482 9.15221V16.449H32.126V14.7079H32.0773C31.4815 15.8855 30.1822 16.6302 28.8342 16.6302C26.8218 16.6302 25.415 15.3419 25.415 13.4398ZM32.0478 12.4837V11.6484L29.5178 11.8094C28.2576 11.9 27.5446 12.4737 27.5446 13.3795C27.5446 14.3053 28.2869 14.9093 29.4201 14.9093C30.8951 14.9091 32.0478 13.8624 32.0478 12.4837Z" fill="black"/>
<path d="M36.058 20.339V18.5776C36.214 18.6178 36.5656 18.6178 36.7415 18.6178C37.7183 18.6178 38.2459 18.1952 38.5681 17.1082C38.5681 17.088 38.7539 16.4641 38.7539 16.454L35.042 5.85596H37.3276L39.9263 14.4713H39.9652L42.5639 5.85596H44.7909L40.9418 16.9974C40.063 19.564 39.047 20.3893 36.9175 20.3893C36.7415 20.3893 36.214 20.3691 36.058 20.339Z" fill="black"/>
</svg>
