<svg width="120" height="120" viewBox="0 0 120 120" fill="none" xmlns="http://www.w3.org/2000/svg">
<g clip-path="url(#clip0_108_5900)">
<rect x="8" y="8" width="104" height="104" rx="52" fill="#DEF7E5"/>
<path d="M36.2745 46.807C36.7281 44.641 38.4271 42.942 40.5931 42.4884C46.032 41.3495 51.9202 42.8913 56.1428 47.1139C60.3654 51.3364 61.9072 57.2246 60.7682 62.6635C60.3147 64.8295 58.6157 66.5285 56.4497 66.9821C51.0107 68.121 45.1226 66.5792 40.9 62.3567C36.6774 58.1341 35.1356 52.2459 36.2745 46.807Z" fill="#74CF54"/>
<path d="M43.5443 42.658C41.0901 42.9291 39.1331 44.8789 38.861 47.324C38.4451 51.062 39.6756 54.9474 42.5524 57.8136C45.4292 60.6798 49.329 61.9057 53.0808 61.4913C55.5349 61.2202 57.492 59.2704 57.7641 56.8254C58.18 53.0873 56.9495 49.202 54.0727 46.3358C51.1959 43.4696 47.2961 42.2436 43.5443 42.658Z" fill="#9DE085"/>
<path fill-rule="evenodd" clip-rule="evenodd" d="M37.6409 44.2194C37.7764 43.8821 38.1597 43.7185 38.497 43.854C38.5382 43.8706 38.5823 43.8882 38.6292 43.9069C40.318 44.5821 45.6272 46.7047 51.1352 52.7224C54.113 55.9757 55.8413 58.4513 56.9601 60.3729C57.5191 61.333 57.9224 62.1488 58.2503 62.8437C58.3464 63.0471 58.4343 63.2367 58.5169 63.4145C58.7216 63.8556 58.8932 64.2251 59.0719 64.5585C59.2437 64.8789 59.1232 65.2778 58.8028 65.4496C58.4824 65.6214 58.0834 65.5009 57.9117 65.1805C57.7138 64.8114 57.5184 64.3904 57.3063 63.9335C57.2268 63.7622 57.145 63.586 57.0598 63.4055C56.7412 62.7305 56.3557 61.9512 55.8224 61.0352C54.7566 59.2047 53.0866 56.8041 50.1641 53.6112C44.8568 47.8128 39.7651 45.7784 38.14 45.1291C38.0924 45.1101 38.0478 45.0922 38.0063 45.0756C37.6689 44.94 37.5054 44.5567 37.6409 44.2194Z" fill="#50903A"/>
<path d="M78.1009 50.3434C77.8571 48.1439 76.1031 46.3899 73.9035 46.1461C70.5409 45.7733 67.0458 46.8761 64.4674 49.4545C61.889 52.0328 60.7862 55.528 61.159 58.8906C61.4028 61.0901 63.1569 62.8441 65.3564 63.088C68.719 63.4607 72.2142 62.358 74.7925 59.7796C77.3709 57.2012 78.4737 53.706 78.1009 50.3434Z" fill="#5DCA37"/>
<path d="M76.6192 49.2294C76.5272 47.5951 75.2976 46.2291 73.6768 45.9606C71.199 45.5502 68.5634 46.2243 66.5479 48.0251C64.5325 49.8259 63.574 52.3631 63.7148 54.8618C63.8068 56.4962 65.0364 57.8622 66.6572 58.1306C69.135 58.5411 71.7706 57.867 73.7861 56.0661C75.8015 54.2653 76.76 51.7281 76.6192 49.2294Z" fill="#88DA6B"/>
<path fill-rule="evenodd" clip-rule="evenodd" d="M77.0023 47.4748C76.8663 47.1377 76.4827 46.9747 76.1456 47.1107C76.1189 47.1215 76.0903 47.133 76.06 47.1452C74.9503 47.5908 71.4591 48.9928 67.8417 52.9621C65.8953 55.0978 64.7612 56.7279 64.0244 57.9989C63.6564 58.6337 63.391 59.173 63.1761 59.6303C63.1116 59.7674 63.0533 59.8935 62.9991 60.0108C62.8674 60.2957 62.7599 60.5284 62.6469 60.7401C62.4757 61.0608 62.5969 61.4595 62.9176 61.6307C63.2383 61.8019 63.6371 61.6807 63.8083 61.36C63.9402 61.1127 64.0716 60.8285 64.2106 60.5277C64.2617 60.4171 64.3139 60.3043 64.3675 60.1901C64.5731 59.7526 64.8208 59.2499 65.1633 58.6592C65.8473 57.4791 66.9234 55.924 68.8146 53.8489C72.2316 50.0996 75.5052 48.7862 76.5509 48.3666C76.582 48.3541 76.6111 48.3425 76.6382 48.3315C76.9753 48.1955 77.1383 47.8119 77.0023 47.4748Z" fill="#50903A"/>
<ellipse cx="58.538" cy="93.878" rx="30.6893" ry="30.0311" fill="#74CF54"/>
<ellipse cx="55.4937" cy="90.9161" rx="27.6451" ry="27.0691" fill="#9DE085"/>
<ellipse cx="44.6332" cy="81.44" rx="11.6833" ry="10.2846" transform="rotate(-3.69388 44.6332 81.44)" fill="#74CF54"/>
<ellipse cx="66.519" cy="81.4396" rx="11.6833" ry="10.2846" transform="rotate(4.44306 66.519 81.4396)" fill="#74CF54"/>
<ellipse cx="44.6332" cy="80.1107" rx="11.6833" ry="10.2846" transform="rotate(-3.69388 44.6332 80.1107)" fill="#FFF6CA"/>
<ellipse cx="66.519" cy="80.1115" rx="11.6833" ry="10.2846" transform="rotate(4.44306 66.519 80.1115)" fill="#FFF6CA"/>
<circle cx="97.5811" cy="78.0811" r="9.95615" fill="#74CF54"/>
<circle cx="96.1025" cy="76.6025" r="8.47751" fill="#9DE085"/>
<path fill-rule="evenodd" clip-rule="evenodd" d="M38.709 82.2501C38.709 78.8421 41.4717 76.0793 44.8798 76.0793C48.2878 76.0793 51.0505 78.8421 51.0505 82.2501V83.8134C51.0505 84.4495 50.5348 84.9653 49.8987 84.9653C49.2625 84.9653 48.7468 84.4495 48.7468 83.8134V82.2501C48.7468 80.1144 47.0155 78.3831 44.8798 78.3831C42.7441 78.3831 41.0127 80.1144 41.0127 82.2501V83.8134C41.0127 84.4495 40.497 84.9653 39.8609 84.9653C39.2247 84.9653 38.709 84.4495 38.709 83.8134V82.2501Z" fill="#141414"/>
<path fill-rule="evenodd" clip-rule="evenodd" d="M59.772 82.2504C59.772 78.8423 62.5347 76.0796 65.9427 76.0796C69.3508 76.0796 72.1135 78.8423 72.1135 82.2504V83.8136C72.1135 84.4498 71.5978 84.9655 70.9616 84.9655C70.3255 84.9655 69.8098 84.4498 69.8098 83.8136V82.2504C69.8098 80.1147 68.0784 78.3833 65.9427 78.3833C63.8071 78.3833 62.0757 80.1147 62.0757 82.2504V83.8136C62.0757 84.4498 61.56 84.9655 60.9239 84.9655C60.2877 84.9655 59.772 84.4498 59.772 83.8136V82.2504Z" fill="#141414"/>
<path fill-rule="evenodd" clip-rule="evenodd" d="M60.9668 93.5902C60.9668 96.9982 58.204 99.761 54.796 99.761C51.388 99.761 48.6252 96.9982 48.6252 93.5902V92.0269C48.6252 91.3908 49.141 90.8751 49.7771 90.8751C50.4133 90.8751 50.929 91.3908 50.929 92.0269V93.5902C50.929 95.7259 52.6603 97.4572 54.796 97.4572C56.9317 97.4572 58.663 95.7259 58.663 93.5902V92.0269C58.663 91.3908 59.1788 90.8751 59.8149 90.8751C60.4511 90.8751 60.9668 91.3908 60.9668 92.0269V93.5902Z" fill="#141414"/>
<ellipse cx="36.9814" cy="90.724" rx="10.1201" ry="4.60751" fill="#FF9F9F"/>
<ellipse cx="73.3476" cy="90.724" rx="10.1201" ry="4.60751" fill="#FF9F9F"/>
<ellipse cx="20.6189" cy="92.4399" rx="9.36891" ry="9.3689" fill="#74CF54"/>
<circle cx="19.413" cy="91.2341" r="8.16301" fill="#9DE085"/>
</g>
<rect x="4" y="4" width="112" height="112" rx="56" stroke="white" stroke-width="8"/>
<defs>
<clipPath id="clip0_108_5900">
<rect x="8" y="8" width="104" height="104" rx="52" fill="white"/>
</clipPath>
</defs>
</svg>
