<svg width="22" height="22" viewBox="0 0 22 22" fill="none" xmlns="http://www.w3.org/2000/svg">
<path fill-rule="evenodd" clip-rule="evenodd" d="M11 0.25C5.06294 0.25 0.25 5.06294 0.25 11C0.25 16.9371 5.06294 21.75 11 21.75C16.9371 21.75 21.75 16.9371 21.75 11C21.75 5.06294 16.9371 0.25 11 0.25ZM10.9916 5.25C9.19576 5.25 7.73808 6.70407 7.73808 8.5C7.73808 10.2959 9.19576 11.75 10.9916 11.75C12.7875 11.75 14.2452 10.2959 14.2452 8.5C14.2452 6.70407 12.7875 5.25 10.9916 5.25ZM16.0409 15.4802C13.3735 12.6002 8.57472 12.7487 5.96382 15.4756L5.77631 15.6631C5.63104 15.8084 5.55172 16.0069 5.55688 16.2123C5.56204 16.4177 5.65122 16.612 5.8036 16.7498C7.17769 17.9923 9.0013 18.75 11.0001 18.75C12.9989 18.75 14.8225 17.9923 16.1966 16.7498C16.349 16.612 16.4382 16.4177 16.4433 16.2123C16.4485 16.0069 16.3692 15.8084 16.2239 15.6631L16.0409 15.4802Z" fill="#56C47C"/>
</svg>
