<svg width="22" height="22" viewBox="0 0 22 22" fill="none" xmlns="http://www.w3.org/2000/svg">
<path fill-rule="evenodd" clip-rule="evenodd" d="M9 12C9 11.4477 9.44772 11 10 11H15C15.5523 11 16 11.4477 16 12C16 12.5523 15.5523 13 15 13H10C9.44772 13 9 12.5523 9 12ZM6 12C6 11.4477 6.44772 11 7 11H7.00898C7.56127 11 8.00898 11.4477 8.00898 12C8.00898 12.5523 7.56127 13 7.00898 13H7C6.44772 13 6 12.5523 6 12ZM6 16C6 15.4477 6.44772 15 7 15H12C12.5523 15 13 15.4477 13 16C13 16.5523 12.5523 17 12 17H7C6.44772 17 6 16.5523 6 16ZM13.991 16C13.991 15.4477 14.4387 15 14.991 15H15C15.5523 15 16 15.4477 16 16C16 16.5523 15.5523 17 15 17H14.991C14.4387 17 13.991 16.5523 13.991 16Z" fill="#BDBDBD"/>
<path d="M6 1C6 0.447715 5.55228 0 5 0C4.44772 0 4 0.447715 4 1V1.44885C4.38032 1.32821 4.78554 1.24208 5.21533 1.17961C5.46328 1.14357 5.72472 1.11476 6 1.09173V1Z" fill="#BDBDBD"/>
<path d="M18 1.44885C17.6197 1.32821 17.2145 1.24208 16.7847 1.17961C16.5367 1.14357 16.2753 1.11476 16 1.09173V1C16 0.447715 16.4477 0 17 0C17.5523 0 18 0.447715 18 1V1.44885Z" fill="#BDBDBD"/>
<path fill-rule="evenodd" clip-rule="evenodd" d="M12.0288 1H9.97122C8.02294 0.999969 6.45141 0.999944 5.21533 1.17961C3.92535 1.3671 2.8568 1.76781 2.01802 2.6746C1.18949 3.57031 0.832789 4.69272 0.664161 6.04866C0.499966 7.36894 0.499982 9.05407 0.5 11.1739V11.8261C0.499982 13.9459 0.499966 15.6311 0.664161 16.9513C0.832789 18.3073 1.18949 19.4297 2.01802 20.3254C2.8568 21.2322 3.92535 21.6329 5.21533 21.8204C6.45142 22.0001 8.02293 22 9.97122 22H12.0288C13.9771 22 15.5486 22.0001 16.7847 21.8204C18.0747 21.6329 19.1432 21.2322 19.982 20.3254C20.8105 19.4297 21.1672 18.3073 21.3358 16.9513C21.5 15.6311 21.5 13.9459 21.5 11.8261V11.1739C21.5 9.05408 21.5 7.36895 21.3358 6.04866C21.1672 4.69272 20.8105 3.57031 19.982 2.6746C19.1432 1.76781 18.0747 1.3671 16.7847 1.17961C15.5486 0.999944 13.9771 0.999969 12.0288 1ZM3.49783 8C3.03921 8 2.8099 8 2.66385 8.14417C2.51781 8.28833 2.51487 8.51472 2.509 8.96751C2.50027 9.64067 2.5 10.3942 2.5 11.2432V11.7568C2.5 13.9616 2.50182 15.5221 2.64887 16.7045C2.79327 17.8656 3.06263 18.5094 3.48622 18.9673C3.89956 19.4142 4.4647 19.6903 5.503 19.8412C6.57858 19.9975 8.00425 20 10.05 20H11.95C13.9957 20 15.4214 19.9975 16.497 19.8412C17.5353 19.6903 18.1004 19.4142 18.5138 18.9673C18.9374 18.5094 19.2067 17.8656 19.3511 16.7045C19.4982 15.5221 19.5 13.9616 19.5 11.7568V11.2432C19.5 10.3942 19.4997 9.64067 19.491 8.96751C19.4851 8.51472 19.4822 8.28833 19.3362 8.14417C19.1901 8 18.9608 8 18.5022 8H3.49783Z" fill="#BDBDBD"/>
</svg>
