<svg width="20" height="22" viewBox="0 0 20 22" fill="none" xmlns="http://www.w3.org/2000/svg">
<path fill-rule="evenodd" clip-rule="evenodd" d="M10 21.7499C9.70098 21.7499 9.44518 21.6665 9.2121 21.5583C8.44116 21.1745 7.48926 20.6264 6.78073 20.2059C6.27366 19.9049 6.02012 19.7544 5.75033 19.7521C5.48055 19.7498 5.22934 19.8931 4.72693 20.1797L3.72195 20.753C3.21874 21.0008 2.3685 21.3168 1.60204 20.8521C1.06862 20.5288 0.892104 19.985 0.819419 19.4932C0.749908 19.0229 0.749952 18.4098 0.750003 17.7033L0.750005 6.94513C0.749984 5.57754 0.749968 4.47522 0.866528 3.60825C0.987545 2.70814 1.24644 1.95027 1.84836 1.34835C2.45027 0.746436 3.20815 0.487542 4.10825 0.366526C4.97521 0.249966 6.07755 0.249981 7.44512 0.25H7.44513H12.5549H12.5549C13.9225 0.249981 15.0248 0.249966 15.8917 0.366526C16.7919 0.487542 17.5497 0.746436 18.1516 1.34835C18.7536 1.95027 19.0125 2.70814 19.1335 3.60825C19.25 4.47522 19.25 5.57754 19.25 6.94513L19.25 17.7033C19.25 18.4098 19.2501 19.0229 19.1806 19.4932C19.1079 19.985 18.9314 20.5288 18.398 20.8521C17.6315 21.3168 16.7813 21.0008 16.2781 20.753L15.2731 20.1797C14.7707 19.8931 14.5195 19.7498 14.2497 19.7521C13.9799 19.7544 13.7263 19.9049 13.2193 20.2059C12.5107 20.6264 11.5588 21.1745 10.7879 21.5583C10.5548 21.6665 10.299 21.7499 10 21.7499ZM6.29289 13.7071C5.90237 13.3166 5.90237 12.6834 6.29289 12.2929L12.2929 6.29289C12.6834 5.90237 13.3166 5.90237 13.7071 6.29289C14.0976 6.68342 14.0976 7.31658 13.7071 7.70711L7.70711 13.7071C7.31658 14.0976 6.68342 14.0976 6.29289 13.7071ZM7.00897 6H7C6.44772 6 6 6.44772 6 7C6 7.55229 6.44772 8 7 8H7.00897C7.56125 8 8.00897 7.55229 8.00897 7C8.00897 6.44772 7.56125 6 7.00897 6ZM12.991 12C12.4387 12 11.991 12.4477 11.991 13C11.991 13.5523 12.4387 14 12.991 14H13C13.5523 14 14 13.5523 14 13C14 12.4477 13.5523 12 13 12H12.991Z" fill="#56C47C"/>
</svg>
