<svg width="14" height="14" viewBox="0 0 14 14" fill="none" xmlns="http://www.w3.org/2000/svg">
<path fill-rule="evenodd" clip-rule="evenodd" d="M0.483276 1.71314C0.181393 1.33579 0.242574 0.785159 0.619928 0.483276C0.997282 0.181393 1.54791 0.242574 1.8498 0.619928L6.51646 6.45326C6.77212 6.77283 6.77212 7.22691 6.51646 7.54648L1.8498 13.3798C1.54791 13.7572 0.997282 13.8183 0.619927 13.5165C0.242573 13.2146 0.181392 12.6639 0.483275 12.2866L4.71266 6.99987L0.483276 1.71314ZM7.48328 1.71314C7.18139 1.33579 7.24257 0.78516 7.61993 0.483276C7.99728 0.181393 8.54791 0.242574 8.8498 0.619928L13.5165 6.45326C13.7721 6.77283 13.7721 7.22691 13.5165 7.54648L8.84979 13.3798C8.54791 13.7572 7.99728 13.8183 7.61993 13.5165C7.24257 13.2146 7.18139 12.664 7.48327 12.2866L11.7127 6.99987L7.48328 1.71314Z" fill="white"/>
</svg>
