<svg width="116" height="116" viewBox="0 0 116 116" fill="none" xmlns="http://www.w3.org/2000/svg">
<path d="M58 0.5C26.3175 0.5 0.5 26.3175 0.5 58C0.5 89.6825 26.3175 115.5 58 115.5C89.6825 115.5 115.5 89.6825 115.5 58C115.5 26.3175 89.6825 0.5 58 0.5ZM85.485 44.775L52.8825 77.3775C52.0775 78.1825 50.985 78.6425 49.835 78.6425C48.685 78.6425 47.5925 78.1825 46.7875 77.3775L30.515 61.105C28.8475 59.4375 28.8475 56.6775 30.515 55.01C32.1825 53.3425 34.9425 53.3425 36.61 55.01L49.835 68.235L79.39 38.68C81.0575 37.0125 83.8175 37.0125 85.485 38.68C87.1525 40.3475 87.1525 43.05 85.485 44.775Z" fill="#4CD964"/>
</svg>
