<svg width="134" height="134" viewBox="0 0 134 134" fill="none" xmlns="http://www.w3.org/2000/svg">
<circle cx="67" cy="67" r="67" fill="#F9F9F9"/>
<mask id="mask0_30_2080" style="mask-type:alpha" maskUnits="userSpaceOnUse" x="0" y="0" width="134" height="134">
<circle cx="67" cy="67" r="67" fill="#F9F9F9"/>
</mask>
<g mask="url(#mask0_30_2080)">
<g filter="url(#filter0_d_30_2080)">
<rect x="17" y="45.5601" width="100.5" height="113.9" rx="20" fill="white"/>
</g>
<rect x="23.4502" y="89.1099" width="33.5" height="6.7" rx="3.35" fill="#E2E4EA"/>
<rect x="23.4502" y="131.99" width="33.5" height="6.7" rx="3.35" fill="#E2E4EA"/>
<rect x="23.4502" y="103.85" width="87.1" height="20.1" rx="6.96667" fill="#E2E4EA"/>
<path d="M66.9998 30.1665C52.7657 30.1665 41.1665 41.7657 41.1665 55.9998C41.1665 70.234 52.7657 81.8332 66.9998 81.8332C81.234 81.8332 92.8332 70.234 92.8332 55.9998C92.8332 41.7657 81.234 30.1665 66.9998 30.1665ZM79.3482 50.0582L64.7007 64.7057C64.339 65.0673 63.8482 65.274 63.3315 65.274C62.8148 65.274 62.324 65.0673 61.9623 64.7057L54.6515 57.3948C53.9023 56.6457 53.9023 55.4057 54.6515 54.6565C55.4007 53.9073 56.6407 53.9073 57.3898 54.6565L63.3315 60.5982L76.6098 47.3198C77.359 46.5707 78.599 46.5707 79.3482 47.3198C80.0973 48.069 80.0973 49.2832 79.3482 50.0582Z" fill="#4CD964"/>
<circle cx="116.395" cy="129.423" r="1.45349" transform="rotate(180 116.395 129.423)" fill="#F1F3F7"/>
<circle cx="130.763" cy="102.624" r="1.45349" transform="rotate(180 130.763 102.624)" fill="#F1F3F7"/>
<circle cx="132.104" cy="122.053" r="1.45349" transform="rotate(180 132.104 122.053)" fill="#9FB6FA"/>
<circle cx="3.20374" cy="132.732" r="1.45349" transform="rotate(180 3.20374 132.732)" fill="#F1F3F7"/>
<path d="M8.90722 124.672L7.83022 125.749L7.05156 124.97L8.12856 123.893L6.91134 122.676L7.73177 121.856L8.94898 123.073L10.029 121.993L10.8076 122.771L9.72764 123.851L10.8941 125.018L10.0737 125.838L8.90722 124.672Z" fill="#9FB6FA"/>
<circle cx="1.45349" cy="1.45349" r="1.45349" transform="matrix(1 0 0 -1 19.4302 8.04004)" fill="#9FB6FA"/>
<path d="M7.49379 10.4001L8.00791 10.9143L8.3796 10.5426L7.86549 10.0284L8.44654 9.4474L8.0549 9.05576L7.47386 9.63681L6.95832 9.12127L6.58662 9.49297L7.10216 10.0085L6.54532 10.5653L6.93696 10.957L7.49379 10.4001Z" fill="#9FB6FA"/>
</g>
<defs>
<filter id="filter0_d_30_2080" x="-70.0833" y="-38.04" width="274.667" height="288.067" filterUnits="userSpaceOnUse" color-interpolation-filters="sRGB">
<feFlood flood-opacity="0" result="BackgroundImageFix"/>
<feColorMatrix in="SourceAlpha" type="matrix" values="0 0 0 0 0 0 0 0 0 0 0 0 0 0 0 0 0 0 127 0" result="hardAlpha"/>
<feOffset dy="3.48333"/>
<feGaussianBlur stdDeviation="43.5417"/>
<feComposite in2="hardAlpha" operator="out"/>
<feColorMatrix type="matrix" values="0 0 0 0 0.388235 0 0 0 0 0.419608 0 0 0 0 0.505882 0 0 0 0.15 0"/>
<feBlend mode="normal" in2="BackgroundImageFix" result="effect1_dropShadow_30_2080"/>
<feBlend mode="normal" in="SourceGraphic" in2="effect1_dropShadow_30_2080" result="shape"/>
</filter>
</defs>
</svg>
