<svg width="22" height="22" viewBox="0 0 22 22" fill="none" xmlns="http://www.w3.org/2000/svg">
<path d="M11.6513 7.29795L14.5712 6.32465C15.4575 6.02924 15.9006 5.88153 16.1345 6.11544C16.3684 6.34934 16.2207 6.79246 15.9253 7.6787L14.952 10.5986C14.4486 12.1088 14.1969 12.8639 13.6554 13.4054C13.1139 13.9469 12.3588 14.1986 10.8486 14.702L7.9287 15.6753C7.04246 15.9707 6.59934 16.1184 6.36544 15.8845C6.13153 15.6506 6.27924 15.2075 6.57465 14.3212L7.54795 11.4013C8.05134 9.89114 8.30304 9.13605 8.84455 8.59455C9.38605 8.05304 10.1411 7.80134 11.6513 7.29795Z" stroke="#C9CEDC" stroke-width="1.79999" stroke-linecap="round" stroke-linejoin="round"/>
<path fill-rule="evenodd" clip-rule="evenodd" d="M11.25 11L11.2436 11.0064L11.25 11Z" fill="white"/>
<path d="M11.25 11L11.2436 11.0064" stroke="#C9CEDC" stroke-width="2.39998" stroke-linecap="round" stroke-linejoin="round"/>
<path d="M1.75 10.9999C1.75 6.52162 1.75 4.28246 3.14123 2.89123C4.53246 1.5 6.77162 1.5 11.2499 1.5C15.7282 1.5 17.9674 1.5 19.3586 2.89123C20.7498 4.28246 20.7498 6.52162 20.7498 10.9999C20.7498 15.4782 20.7498 17.7174 19.3586 19.1086C17.9674 20.4998 15.7282 20.4998 11.2499 20.4998C6.77162 20.4998 4.53246 20.4998 3.14123 19.1086C1.75 17.7174 1.75 15.4782 1.75 10.9999Z" stroke="#C9CEDC" stroke-width="1.79999" stroke-linecap="round" stroke-linejoin="round"/>
</svg>
