<svg width="20" height="20" viewBox="0 0 20 20" fill="none" xmlns="http://www.w3.org/2000/svg">
<path d="M7.8916 12.7333C7.73327 12.7333 7.57493 12.6749 7.44993 12.5499C6.7666 11.8666 6.3916 10.9583 6.3916 9.99993C6.3916 8.00827 8.00827 6.3916 9.99993 6.3916C10.9583 6.3916 11.8666 6.7666 12.5499 7.44993C12.6666 7.5666 12.7333 7.72493 12.7333 7.8916C12.7333 8.05827 12.6666 8.2166 12.5499 8.33327L8.33327 12.5499C8.20827 12.6749 8.04994 12.7333 7.8916 12.7333ZM9.99993 7.6416C8.69993 7.6416 7.6416 8.69993 7.6416 9.99993C7.6416 10.4166 7.74993 10.8166 7.94993 11.1666L11.1666 7.94993C10.8166 7.74993 10.4166 7.6416 9.99993 7.6416Z" fill="#BDBDBD"/>
<path d="M4.66678 15.4251C4.52511 15.4251 4.37511 15.3751 4.25845 15.2751C3.36678 14.5167 2.56678 13.5834 1.88345 12.5001C1.00011 11.1251 1.00011 8.8834 1.88345 7.50006C3.91678 4.31673 6.87511 2.4834 10.0001 2.4834C11.8334 2.4834 13.6418 3.11673 15.2251 4.3084C15.5001 4.51673 15.5584 4.9084 15.3501 5.1834C15.1418 5.4584 14.7501 5.51673 14.4751 5.3084C13.1084 4.27506 11.5584 3.7334 10.0001 3.7334C7.30845 3.7334 4.73345 5.35006 2.93345 8.17507C2.30845 9.15006 2.30845 10.8501 2.93345 11.8251C3.55845 12.8001 4.27511 13.6417 5.06678 14.3251C5.32511 14.5501 5.35845 14.9417 5.13345 15.2084C5.01678 15.3501 4.84178 15.4251 4.66678 15.4251Z" fill="#BDBDBD"/>
<path d="M9.99989 17.5166C8.89156 17.5166 7.80822 17.2916 6.76656 16.8499C6.44989 16.7166 6.29989 16.3499 6.43322 16.0332C6.56656 15.7166 6.93322 15.5666 7.24989 15.6999C8.13322 16.0749 9.05822 16.2666 9.99156 16.2666C12.6832 16.2666 15.2582 14.6499 17.0582 11.8249C17.6832 10.8499 17.6832 9.14992 17.0582 8.17492C16.7999 7.76658 16.5166 7.37492 16.2166 7.00825C15.9999 6.74158 16.0416 6.34992 16.3082 6.12492C16.5749 5.90825 16.9666 5.94158 17.1916 6.21658C17.5166 6.61658 17.8332 7.04992 18.1166 7.49992C18.9999 8.87492 18.9999 11.1166 18.1166 12.4999C16.0832 15.6832 13.1249 17.5166 9.99989 17.5166Z" fill="#BDBDBD"/>
<path d="M10.5749 13.5584C10.2832 13.5584 10.0166 13.35 9.95824 13.05C9.89157 12.7084 10.1166 12.3834 10.4582 12.325C11.3749 12.1584 12.1416 11.3917 12.3082 10.475C12.3749 10.1334 12.6999 9.91671 13.0416 9.97504C13.3832 10.0417 13.6082 10.3667 13.5416 10.7084C13.2749 12.15 12.1249 13.2917 10.6916 13.5584C10.6499 13.55 10.6166 13.5584 10.5749 13.5584Z" fill="#BDBDBD"/>
<path d="M1.66662 18.9583C1.50828 18.9583 1.34995 18.8999 1.22495 18.7749C0.983285 18.5333 0.983285 18.1333 1.22495 17.8916L7.44995 11.6666C7.69162 11.4249 8.09162 11.4249 8.33329 11.6666C8.57495 11.9083 8.57495 12.3083 8.33329 12.5499L2.10828 18.7749C1.98328 18.8999 1.82495 18.9583 1.66662 18.9583Z" fill="#BDBDBD"/>
<path d="M12.1083 8.51662C11.9499 8.51662 11.7916 8.45828 11.6666 8.33328C11.4249 8.09162 11.4249 7.69162 11.6666 7.44995L17.8916 1.22495C18.1333 0.983285 18.5333 0.983285 18.7749 1.22495C19.0166 1.46662 19.0166 1.86662 18.7749 2.10828L12.5499 8.33328C12.4249 8.45828 12.2666 8.51662 12.1083 8.51662Z" fill="#BDBDBD"/>
</svg>
