<svg width="20" height="15" viewBox="0 0 20 15" fill="none" xmlns="http://www.w3.org/2000/svg">
<path fill-rule="evenodd" clip-rule="evenodd" d="M12 0.5H14C15.3979 0.5 16.5725 1.45608 16.9055 2.75H19C19.4142 2.75 19.75 3.08579 19.75 3.5C19.75 3.91421 19.4142 4.25 19 4.25H16.9055C16.5725 5.54392 15.3979 6.5 14 6.5H12C10.3431 6.5 9 5.15685 9 3.5C9 1.84315 10.3431 0.5 12 0.5ZM1 2.75C0.585786 2.75 0.25 3.08579 0.25 3.5C0.25 3.91421 0.585786 4.25 1 4.25H6C6.41421 4.25 6.75 3.91421 6.75 3.5C6.75 3.08579 6.41421 2.75 6 2.75H1ZM14 10.75C13.5858 10.75 13.25 11.0858 13.25 11.5C13.25 11.9142 13.5858 12.25 14 12.25H19C19.4142 12.25 19.75 11.9142 19.75 11.5C19.75 11.0858 19.4142 10.75 19 10.75H14ZM8 8.5H6C4.60212 8.5 3.42755 9.45608 3.09451 10.75H1C0.585786 10.75 0.25 11.0858 0.25 11.5C0.25 11.9142 0.585786 12.25 1 12.25H3.09451C3.42755 13.5439 4.60212 14.5 6 14.5H8C9.65685 14.5 11 13.1569 11 11.5C11 9.84315 9.65685 8.5 8 8.5Z" fill="#B0B0B0"/>
</svg>
