<svg width="28" height="28" viewBox="0 0 28 28" fill="none" xmlns="http://www.w3.org/2000/svg">
<path d="M14.7235 24.2779C14.2515 24.4178 13.7489 24.4178 13.2769 24.2779C9.89352 23.1229 2.33352 18.3045 2.33352 10.1379C2.33107 9.2837 2.49692 8.4374 2.82161 7.64733C3.14629 6.85725 3.62345 6.13889 4.22583 5.53326C4.8282 4.92764 5.54399 4.44662 6.3323 4.11769C7.12061 3.78876 7.96601 3.61835 8.82019 3.61621C9.82795 3.61572 10.8217 3.85195 11.7215 4.30587C12.6212 4.75979 13.4017 5.41872 14.0002 6.22955C14.8141 5.13364 15.9537 4.32318 17.2561 3.91407C18.5585 3.50496 19.9568 3.51816 21.2512 3.95179C22.5456 4.38541 23.6697 5.21724 24.4628 6.32832C25.2559 7.4394 25.6774 8.77282 25.6669 10.1379C25.6669 18.3045 18.1069 23.1229 14.7235 24.2779Z" stroke="white" stroke-width="1.5" stroke-linecap="round" stroke-linejoin="round"/>
</svg>
