<svg id="Group_1204" data-name="Group 1204" xmlns="http://www.w3.org/2000/svg" width="22.933" height="22.933" viewBox="0 0 22.933 22.933">
  <g id="shop">
    <path id="Path" d="M22.8,5.469,19.93.484A.948.948,0,0,0,19.111,0H3.822A.948.948,0,0,0,3,.484L.137,5.469A1.03,1.03,0,0,0,0,5.983,3.9,3.9,0,0,0,3.806,9.971h.008A3.709,3.709,0,0,0,6.369,8.949a3.683,3.683,0,0,0,5.1,0,3.683,3.683,0,0,0,5.1,0,3.692,3.692,0,0,0,4.11.679,3.992,3.992,0,0,0,2.26-3.646A1.03,1.03,0,0,0,22.8,5.469Z" transform="translate(0)" fill="#f97533"/>
    <path id="Path-2" data-name="Path" d="M16.26.626A5.547,5.547,0,0,1,13.7,0l-.014.007A5.469,5.469,0,0,1,9.324.316,5.7,5.7,0,0,1,8.6,0l-.011,0a5.459,5.459,0,0,1-4.36.308A5.682,5.682,0,0,1,3.5,0,5.529,5.529,0,0,1,.947.626,5.636,5.636,0,0,1,0,.536V10.6a.977.977,0,0,0,.956,1H6.689V5.612h3.822v5.983h5.733a.977.977,0,0,0,.956-1V.532A5.533,5.533,0,0,1,16.26.626Z" transform="translate(2.867 11.339)" fill="#f97533"/>
  </g>
</svg>
