<svg width="16" height="20" viewBox="0 0 16 20" fill="none" xmlns="http://www.w3.org/2000/svg">
<path d="M3.83301 15C2.3089 15.3431 1.33301 15.8702 1.33301 16.4614C1.33301 17.4952 4.31778 18.3333 7.99967 18.3333C11.6816 18.3333 14.6663 17.4952 14.6663 16.4614C14.6663 15.8702 13.6904 15.3431 12.1663 15" stroke="#BDBDBD" stroke-width="1.5" stroke-linecap="round"/>
<path d="M10.0827 7.49984C10.0827 8.65043 9.14994 9.58317 7.99935 9.58317C6.84876 9.58317 5.91602 8.65043 5.91602 7.49984C5.91602 6.34924 6.84876 5.4165 7.99935 5.4165C9.14994 5.4165 10.0827 6.34924 10.0827 7.49984Z" stroke="#BDBDBD" stroke-width="1.5"/>
<path d="M9.04718 14.5778C8.76612 14.8485 8.39044 14.9998 7.99948 14.9998C7.60851 14.9998 7.23284 14.8485 6.95177 14.5778C4.37793 12.0838 0.928674 9.29778 2.61077 5.25295C3.52027 3.06594 5.70347 1.6665 7.99948 1.6665C10.2955 1.6665 12.4787 3.06594 13.3882 5.25295C15.0682 9.29268 11.6274 12.0924 9.04718 14.5778Z" stroke="#BDBDBD" stroke-width="1.5"/>
</svg>
