<svg width="16" height="15" viewBox="0 0 16 15" fill="none" xmlns="http://www.w3.org/2000/svg">
<path d="M0.833008 6.78401C0.833008 3.23986 3.81692 0.333496 7.33497 0.333496C10.6209 0.333496 13.4408 2.86893 13.7987 6.09135C13.8208 6.29109 13.8319 6.39096 13.7706 6.43663C13.7093 6.48229 13.6094 6.43993 13.4098 6.3552C12.8709 6.12655 12.2819 6.00016 11.6696 6.00016C11.1827 6.00016 10.7103 6.08012 10.2663 6.22789C10.1212 6.2762 10.0486 6.30035 9.99891 6.27508C9.94924 6.24981 9.92523 6.17444 9.87723 6.0237C9.53431 4.94686 8.52576 4.16683 7.33497 4.16683C5.86177 4.16683 4.6675 5.36074 4.6675 6.8335C4.6675 8.17613 5.66006 9.28702 6.95165 9.47283C7.10699 9.49518 7.18466 9.50636 7.21776 9.55087C7.25086 9.59538 7.23957 9.67056 7.21699 9.8209C7.18491 10.0345 7.16826 10.253 7.16826 10.4754C7.16826 11.7641 7.7208 12.8009 8.3931 13.5826C8.45842 13.6585 8.52536 13.7327 8.59364 13.8051C8.70179 13.9197 8.75587 13.977 8.74802 14.0394C8.74018 14.1018 8.67596 14.1424 8.54753 14.2237C8.43599 14.2943 8.3248 14.3635 8.21422 14.4311L8.2067 14.4357L8.19902 14.44C7.93546 14.5888 7.63771 14.6668 7.33497 14.6668C7.03224 14.6668 6.73449 14.5888 6.47093 14.44L6.46213 14.4351L6.45353 14.4298C5.14654 13.6209 3.75053 12.6153 2.67816 11.3685C1.60115 10.1162 0.833008 8.59898 0.833008 6.78401Z" fill="white"/>
<path fill-rule="evenodd" clip-rule="evenodd" d="M11.666 7C9.77254 7 8.16602 8.56203 8.16602 10.4753C8.16602 11.4589 8.5836 12.2732 9.14875 12.9305C9.70925 13.5824 10.4321 14.101 11.0938 14.5107L11.1024 14.516L11.1112 14.521C11.2806 14.6166 11.4717 14.6667 11.666 14.6667C11.8603 14.6667 12.0515 14.6166 12.2208 14.521L12.2285 14.5166L12.236 14.5121C12.9013 14.1049 13.6244 13.5845 14.1847 12.9306C14.7493 12.2718 15.166 11.4558 15.166 10.4753C15.166 8.56203 13.5595 7 11.666 7ZM11.6601 9.16667C10.927 9.16667 10.3327 9.76362 10.3327 10.5C10.3327 11.2364 10.927 11.8333 11.6601 11.8333H11.672C12.4051 11.8333 12.9993 11.2364 12.9993 10.5C12.9993 9.76362 12.4051 9.16667 11.672 9.16667H11.6601Z" fill="white"/>
</svg>
