<svg width="24" height="25" viewBox="0 0 24 25" fill="none" xmlns="http://www.w3.org/2000/svg">
<path fill-rule="evenodd" clip-rule="evenodd" d="M6.75 4.15918C4.12665 4.15918 2 6.28583 2 8.90918V16.9092C2 19.5325 4.12665 21.6592 6.75 21.6592H14C16.6234 21.6592 18.75 19.5325 18.75 16.9092C18.75 16.495 18.4142 16.1592 18 16.1592C17.5858 16.1592 17.25 16.495 17.25 16.9092C17.25 18.7041 15.7949 20.1592 14 20.1592H9.46412C10.2616 19.3095 10.75 18.1664 10.75 16.9092V8.90918C10.75 7.65197 10.2616 6.50883 9.46412 5.65918H14C15.7949 5.65918 17.25 7.11425 17.25 8.90918C17.25 9.32339 17.5858 9.65918 18 9.65918C18.4142 9.65918 18.75 9.32339 18.75 8.90918C18.75 6.28583 16.6234 4.15918 14 4.15918H6.75ZM19.1464 15.4395C18.8536 15.1466 18.8536 14.6717 19.1464 14.3788L19.8661 13.6592H13.75C13.3358 13.6592 13 13.3234 13 12.9092C13 12.495 13.3358 12.1592 13.75 12.1592H19.8661L19.1464 11.4395C18.8536 11.1466 18.8536 10.6717 19.1464 10.3788C19.4393 10.086 19.9142 10.086 20.2071 10.3788L21.5 11.6717C22.1834 12.3552 22.1834 13.4632 21.5 14.1466L20.2071 15.4395C19.9142 15.7324 19.4393 15.7324 19.1464 15.4395Z" fill="#F75555"/>
</svg>
