<svg width="24" height="24" viewBox="0 0 24 24" fill="none" xmlns="http://www.w3.org/2000/svg">
<g clip-path="url(#clip0_108_6916)">
<path d="M12.62 20.8096C12.2154 20.9296 11.7847 20.9296 11.38 20.8096C8.48002 19.8196 2.00002 15.6896 2.00002 8.68961C1.99792 7.95745 2.14008 7.23205 2.41838 6.55485C2.69668 5.87765 3.10568 5.2619 3.622 4.7428C4.13832 4.22369 4.75185 3.81139 5.42755 3.52945C6.10324 3.24751 6.82787 3.10145 7.56002 3.09961C8.42382 3.09919 9.27563 3.30167 10.0468 3.69075C10.818 4.07982 11.4871 4.64461 12 5.33961C12.6977 4.40026 13.6745 3.70558 14.7908 3.35492C15.9071 3.00425 17.1057 3.01557 18.2152 3.38725C19.3247 3.75892 20.2882 4.47192 20.968 5.42428C21.6478 6.37663 22.009 7.51956 22 8.68961C22 15.6896 15.52 19.8196 12.62 20.8096Z" stroke="#999797" stroke-width="1.5" stroke-linecap="round" stroke-linejoin="round"/>
</g>
<defs>
<clipPath id="clip0_108_6916">
<rect width="24" height="24" fill="white"/>
</clipPath>
</defs>
</svg>
