<svg width="59" height="21" viewBox="0 0 59 21" fill="none" xmlns="http://www.w3.org/2000/svg">
<path d="M24.9487 12.3818H0V20.945H24.9487V12.3818Z" fill="#84B740"/>
<path d="M24.9487 0.696777H0V9.26753H24.9487V0.696777Z" fill="#259BD6"/>
<path d="M49.8977 19.2022L49.7865 19.2252C49.4013 19.3015 49.2606 19.332 48.9791 19.332C48.3271 19.332 47.5567 18.9886 47.5567 17.3706C47.5567 16.5386 47.69 15.432 48.9049 15.432H48.9123C49.1197 15.4473 49.3568 15.4702 49.8012 15.6075L49.8976 15.6381L49.8977 19.2022ZM50.0977 11.1351L49.8977 11.1734V14.1651L49.72 14.1116L49.6681 14.0964C49.4681 14.0353 49.0088 13.898 48.5644 13.898C46.1347 13.898 45.6235 15.7908 45.6235 17.3781C45.6235 19.5533 46.8088 20.805 48.8755 20.805C49.7496 20.805 50.394 20.7134 51.0459 20.4921C51.646 20.2937 51.8608 20.0112 51.8608 19.4083V10.8223C51.2829 10.9291 50.6829 11.0359 50.0977 11.1351Z" fill="#212121"/>
<path d="M57.1197 19.2553L57.0161 19.2858L56.6457 19.3851C56.2976 19.4766 55.9864 19.5301 55.7493 19.5301C55.1789 19.5301 54.8382 19.24 54.8382 18.744C54.8382 18.4235 54.9789 17.8816 55.9122 17.8816H57.1196V19.2553H57.1197ZM56.2678 13.8594C55.5197 13.8594 54.7493 13.9967 53.7937 14.302L53.1714 14.4928L53.3789 15.9428L53.9864 15.7368C54.6235 15.523 55.416 15.3857 56.0087 15.3857C56.2754 15.3857 57.0902 15.3857 57.0902 16.2939V16.6908H55.9569C53.8902 16.6908 52.9346 17.37 52.9346 18.8278C52.9346 20.0717 53.8161 20.8197 55.2975 20.8197C55.7568 20.8197 56.3939 20.7281 56.942 20.5907L56.9716 20.583L57.0012 20.5907L57.1864 20.6212C57.7642 20.728 58.3642 20.8349 58.9494 20.9493V16.1869C58.9494 14.6454 58.0457 13.8594 56.2678 13.8594Z" fill="#212121"/>
<path d="M42.7267 19.2553L42.623 19.2858L42.2526 19.3851C41.9045 19.4766 41.6007 19.5301 41.3562 19.5301C40.7859 19.5301 40.4451 19.24 40.4451 18.744C40.4451 18.4235 40.5858 17.8816 41.5118 17.8816H42.7192V19.2553H42.7267ZM41.8822 13.8594C41.1266 13.8594 40.3637 13.9967 39.4081 14.302L38.7858 14.4928L38.9932 15.9428L39.6006 15.7368C40.2377 15.523 41.0303 15.3857 41.623 15.3857C41.8897 15.3857 42.7045 15.3857 42.7045 16.2939V16.6908H41.5712C39.5044 16.6908 38.5415 17.37 38.5415 18.8278C38.5415 20.0717 39.423 20.8197 40.9119 20.8197C41.3712 20.8197 42.0083 20.7281 42.5564 20.5907L42.586 20.583L42.6156 20.5907L42.7934 20.6212C43.3786 20.728 43.9711 20.8349 44.5563 20.957V16.1946C44.5638 14.6379 43.6601 13.8594 41.8822 13.8594Z" fill="#212121"/>
<path d="M34.9263 13.8788C33.9855 13.8788 33.2078 14.1994 32.9189 14.3367L32.8448 14.3749L32.7781 14.3214C32.3781 14.0238 31.7929 13.8711 30.9781 13.8711C30.2596 13.8711 29.5855 13.9779 28.8521 14.1992C28.2225 14.3976 27.978 14.7106 27.978 15.2983V20.74H29.9485V15.7104L30.0448 15.6799C30.4448 15.5426 30.6819 15.5196 30.9115 15.5196C31.4819 15.5196 31.7708 15.8325 31.7708 16.4431V20.7475H33.7116V16.3591C33.7116 16.0996 33.6597 15.947 33.6523 15.9165L33.5856 15.7867L33.7189 15.7257C34.0153 15.5884 34.3412 15.5196 34.6818 15.5196C35.0744 15.5196 35.5411 15.6799 35.5411 16.4431V20.7475H37.4744V16.2448C37.4744 14.6496 36.6448 13.8788 34.9263 13.8788Z" fill="#212121"/>
<path d="M55.6672 6.28336C55.3783 6.28336 54.8968 6.25284 54.519 6.17655L54.4079 6.15359V3.2152C54.4079 2.97092 54.3635 2.81833 54.356 2.79538L54.2967 2.6733L54.4227 2.61983C54.4523 2.60457 54.4819 2.59687 54.519 2.58161L54.5413 2.56635C54.5857 2.55109 54.6302 2.53584 54.6746 2.52058C54.6969 2.51288 54.7117 2.50532 54.7265 2.50532C55.1636 2.38325 55.5636 2.3985 55.7413 2.38324H55.7488C56.9562 2.38324 57.0969 3.48987 57.0969 4.32182C57.0895 5.93996 56.3116 6.28336 55.6672 6.28336ZM55.6598 0.696777C55.645 0.696777 55.6227 0.696777 55.6079 0.696777C54.4746 0.696777 53.3115 1.01735 52.8967 1.64311C52.6744 1.94843 52.5486 2.33004 52.5411 2.78025V5.81019C52.5411 6.06973 52.4892 6.16885 52.4819 6.19181L52.4152 6.32158H48.8374V4.21514H48.8299C48.7855 1.9942 47.5114 0.773073 45.6669 0.773073H45.4521H43.8669C43.7928 1.31497 43.7336 1.69659 43.6595 2.23849H45.4521C46.3929 2.23849 46.8892 3.06275 46.8892 4.32966V6.45135L46.7633 6.38261C46.741 6.37492 46.5856 6.32158 46.341 6.32158H43.2446C43.1854 6.72601 43.1113 7.25265 43.0298 7.77929H52.5485C52.8744 7.71056 53.2522 7.64952 53.5781 7.59618C54.0597 7.84046 54.9559 7.9701 55.5707 7.9701C57.6375 7.9701 58.9782 6.5429 58.9782 4.34492C58.9709 2.16975 57.6747 0.742555 55.6598 0.696777Z" fill="#212121"/>
<path d="M38.9711 8.67032H39.0599C41.1267 8.67032 42.0896 7.96814 42.0896 6.23576C42.0896 4.99167 41.2081 3.99956 39.7267 3.99956H37.8229C37.2526 3.99956 36.9118 3.66372 36.9118 3.099C36.9118 2.71739 37.0525 2.24422 37.9859 2.24422H42.1489C42.2377 1.68706 42.2822 1.33597 42.3637 0.778809H38.0376C36.0228 0.778809 35.0079 1.64885 35.0079 3.099C35.0079 4.53376 35.8895 5.28173 37.3709 5.28173H39.2746C39.845 5.28173 40.1858 5.74733 40.1858 6.23576C40.1858 6.55633 40.045 7.22031 39.119 7.22031H38.8006L32.7041 7.20505H31.5929C30.6521 7.20505 29.9929 6.65559 29.9929 5.38098V4.50324C29.9929 3.1753 30.504 2.35104 31.5929 2.35104H33.4003C33.4818 1.78631 33.5336 1.42752 33.6078 0.89332H31.3558H31.141C29.2965 0.89332 28.0225 2.16793 27.978 4.38873V4.47273V5.38098C28.0225 7.60192 29.2965 8.66276 31.141 8.66276H31.3558H32.941L36.2448 8.67046H38.2152L38.9711 8.67032Z" fill="#212121"/>
</svg>
