<svg width="22" height="22" viewBox="0 0 22 22" fill="none" xmlns="http://www.w3.org/2000/svg">
<path d="M18.75 8C17.8934 3.9811 13.7412 1 9.75112 1C6.20834 1 2.83963 3.09916 1.43627 6.37966C-1.15924 12.4469 4.16302 16.626 8.13449 20.367C8.56818 20.773 9.14785 21 9.75112 21C10.3013 21 10.8319 20.8112 11.25 20.4699" stroke="#C9CEDC" stroke-width="1.5" stroke-linecap="round"/>
<path d="M12.75 8.19621C12.1376 7.17979 11.0232 6.5 9.75 6.5C7.817 6.5 6.25 8.067 6.25 10C6.25 11.3962 7.06753 12.6015 8.25 13.1632" stroke="#C9CEDC" stroke-width="1.5" stroke-linecap="round"/>
<path d="M15.75 15H15.759" stroke="#C9CEDC" stroke-width="2" stroke-linecap="round" stroke-linejoin="round"/>
<path d="M16.6481 20.6518C16.4072 20.8752 16.0852 21 15.7501 21C15.415 21 15.093 20.8752 14.8521 20.6518C12.6459 18.5943 9.68942 16.2958 11.1312 12.9588C11.9108 11.1545 13.7821 10 15.7501 10C17.7181 10 19.5894 11.1545 20.369 12.9588C21.809 16.2916 18.8597 18.6014 16.6481 20.6518Z" stroke="#C9CEDC" stroke-width="1.5"/>
</svg>
