<svg width="24" height="25" viewBox="0 0 24 25" fill="none" xmlns="http://www.w3.org/2000/svg">
<path d="M19 8.45459C20.6569 8.45459 22 7.11144 22 5.45459C22 3.79774 20.6569 2.45459 19 2.45459C17.3431 2.45459 16 3.79774 16 5.45459C16 7.11144 17.3431 8.45459 19 8.45459Z" fill="#25B858"/>
<path d="M21 10.8546V16.9346C21 17.0746 20.99 17.2146 20.98 17.3446C20.97 17.4646 20.96 17.5746 20.94 17.6946C20.93 17.8146 20.91 17.9346 20.89 18.0446C20.54 20.4646 19 21.9946 16.59 22.3446C16.48 22.3646 16.36 22.3846 16.24 22.3946C16.12 22.4146 16.01 22.4246 15.89 22.4346C15.76 22.4446 15.62 22.4546 15.48 22.4546H7.52C7.38 22.4546 7.24 22.4446 7.11 22.4346C6.99 22.4246 6.88 22.4146 6.76 22.3946C6.64 22.3846 6.52 22.3646 6.41 22.3446C4 21.9946 2.46 20.4646 2.11 18.0446C2.09 17.9346 2.07 17.8146 2.06 17.6946C2.04 17.5746 2.03 17.4646 2.02 17.3446C2.01 17.2146 2 17.0746 2 16.9346V8.97459C2 8.83459 2.01 8.69459 2.02 8.56459C2.03 8.44459 2.04 8.33459 2.06 8.21459C2.07 8.09459 2.09 7.97459 2.11 7.86459C2.46 5.44459 4 3.91459 6.41 3.56459C6.52 3.54459 6.64 3.52459 6.76 3.51459C6.88 3.49459 6.99 3.48459 7.11 3.47459C7.24 3.46459 7.38 3.45459 7.52 3.45459H13.6C14.24 3.45459 14.7 4.03459 14.58 4.65459C14.58 4.67459 14.57 4.69459 14.57 4.71459C14.55 4.81459 14.54 4.91459 14.52 5.02459C14.48 5.44459 14.5 5.89459 14.59 6.35459C14.62 6.47459 14.64 6.57459 14.68 6.68459C14.76 7.01459 14.89 7.32459 15.06 7.61459C15.12 7.73459 15.2 7.85459 15.27 7.96459C15.6 8.44459 16.01 8.85459 16.49 9.18459C16.6 9.25459 16.72 9.33459 16.84 9.39459C17.13 9.56459 17.44 9.69459 17.77 9.77459C17.88 9.81459 17.98 9.83459 18.1 9.86459C18.56 9.95459 19.01 9.97459 19.43 9.93459C19.54 9.91459 19.64 9.90459 19.74 9.88459C19.76 9.88459 19.78 9.87459 19.8 9.87459C20.42 9.75459 21 10.2146 21 10.8546Z" fill="#25B858"/>
</svg>
