<svg width="18" height="18" viewBox="0 0 18 18" fill="none" xmlns="http://www.w3.org/2000/svg">
<path d="M1.08301 9.00016C1.08301 5.26821 1.08301 3.40223 2.24238 2.24287C3.40175 1.0835 5.26772 1.0835 8.99967 1.0835C12.7316 1.0835 14.5976 1.0835 15.757 2.24287C16.9163 3.40223 16.9163 5.26821 16.9163 9.00016C16.9163 12.7321 16.9163 14.5981 15.757 15.7575C14.5976 16.9168 12.7316 16.9168 8.99967 16.9168C5.26772 16.9168 3.40175 16.9168 2.24238 15.7575C1.08301 14.5981 1.08301 12.7321 1.08301 9.00016Z" stroke="#BDBDBD" stroke-width="1.5"/>
<path d="M7.33301 6.50016C7.33301 5.57969 8.0792 4.8335 8.99967 4.8335C9.92015 4.8335 10.6663 5.57969 10.6663 6.50016C10.6663 6.83196 10.5694 7.1411 10.4023 7.40082C9.90418 8.17489 8.99967 8.91302 8.99967 9.8335V10.2502" stroke="#BDBDBD" stroke-width="1.5" stroke-linecap="round"/>
<path d="M8.993 13.167H9.00049" stroke="#BDBDBD" stroke-width="2" stroke-linecap="round" stroke-linejoin="round"/>
</svg>
