<svg width="430" height="197" viewBox="0 0 430 197" fill="none" xmlns="http://www.w3.org/2000/svg">
<g clip-path="url(#clip0_108_6025)">
<mask id="mask0_108_6025" style="mask-type:alpha" maskUnits="userSpaceOnUse" x="0" y="-169" width="430" height="341">
<path d="M0 151.135C163.646 179.007 257.782 178.825 430 151.135V-168.865H0V151.135Z" fill="#25B858"/>
</mask>
<g mask="url(#mask0_108_6025)">
<path d="M0 151.92C163.646 179.792 257.782 179.61 430 151.92V-168.08H0V-8.07973V151.92Z" fill="#25B858"/>
<path opacity="0.5" d="M383.781 113.445C385.033 164.534 453.194 181.493 454.53 141.218C455.154 122.397 429.62 116.3 422.657 135.443C415.774 154.367 441.094 167.403 458.208 161.426C478.932 154.187 491.617 128.497 491.617 128.497" stroke="white" stroke-width="0.772786" stroke-dasharray="3.09 3.09"/>
<path opacity="0.7" d="M326.063 24L327.048 26.6085L329.769 26.7639L327.657 28.5315L328.353 31.2361L326.063 29.72L323.773 31.2361L324.47 28.5315L322.358 26.7639L325.078 26.6085L326.063 24Z" fill="white"/>
<path opacity="0.7" d="M200.597 50.75L201.089 52.0542L202.45 52.132L201.394 53.0158L201.742 54.368L200.597 53.61L199.452 54.368L199.8 53.0158L198.744 52.132L200.105 52.0542L200.597 50.75Z" fill="white"/>
<path opacity="0.7" d="M142.916 7.59375L143.9 10.2022L146.621 10.3577L144.509 12.1253L145.206 14.8298L142.916 13.3137L140.626 14.8298L141.322 12.1253L139.21 10.3577L141.931 10.2022L142.916 7.59375Z" fill="white"/>
<path opacity="0.7" d="M33.6792 6.37802L35.4902 8.91274L38.4729 8.30086L36.6986 10.815L38.2261 13.536L35.3185 12.5551L33.2799 14.8487L33.2572 11.7283L30.4697 10.4248L33.3633 9.47718L33.6792 6.37802Z" fill="white"/>
<path opacity="0.7" d="M168.443 139.681L167.949 142.425L170.203 143.956L167.483 144.388L166.692 147.066L165.505 144.589L162.762 144.714L164.749 142.751L163.844 140.15L166.259 141.414L168.443 139.681Z" fill="white"/>
<path opacity="0.5" d="M382.267 0.0487541L382.094 4.22743L385.758 6.04039L381.804 7.23906L381.177 11.3811L378.907 7.94328L374.856 8.69027L377.406 5.36688L375.53 1.68647L379.376 3.07036L382.267 0.0487541Z" fill="white"/>
<path opacity="0.5" d="M86.2217 77.4139L87.2743 79.2766L89.3557 79.0755L87.9612 80.6635L88.8067 82.6328L86.8922 81.7516L85.3333 83.1697L85.5446 81.0371L83.7357 79.9443L85.7807 79.5074L86.2217 77.4139Z" fill="white"/>
<g opacity="0.6">
<mask id="path-11-inside-1_108_6025" fill="white">
<path fill-rule="evenodd" clip-rule="evenodd" d="M422.435 82.2896C422.018 82.2876 421.567 82.2171 421.08 82.0692C418.254 81.6425 416.355 77.9046 416.839 73.7204C417.323 69.5362 420.005 66.4901 422.831 66.9168C424.561 67.178 426.348 68.4423 427.116 70.4887C428.966 69.8048 430.973 70.5135 432.283 71.8326C434.424 73.9881 434.187 78.3053 431.754 81.4753C429.321 84.6452 425.613 85.4676 423.472 83.312C423.054 82.9899 422.711 82.6478 422.435 82.2896Z"/>
</mask>
<path d="M422.435 82.2896L422.891 81.9393L422.719 81.7171L422.439 81.7157L422.435 82.2896ZM421.08 82.0692L421.247 81.5201L421.207 81.508L421.166 81.5017L421.08 82.0692ZM416.839 73.7204L416.268 73.655L416.268 73.655L416.839 73.7204ZM422.831 66.9168L422.918 66.3493L422.831 66.9168ZM427.116 70.4887L426.578 70.6904L426.778 71.2251L427.314 71.0269L427.116 70.4887ZM432.283 71.8326L431.875 72.237L432.283 71.8326ZM431.754 81.4753L431.298 81.1262L431.754 81.4753ZM423.472 83.312L423.88 82.9076L423.853 82.8808L423.823 82.8578L423.472 83.312ZM422.439 81.7157C422.084 81.714 421.689 81.654 421.247 81.5201L420.913 82.6183C421.445 82.7801 421.952 82.8612 422.432 82.8635L422.439 81.7157ZM421.166 81.5017C419.994 81.3247 418.944 80.4487 418.231 79.0438C417.52 77.6444 417.179 75.779 417.41 73.7859L416.268 73.655C416.015 75.8461 416.382 77.9417 417.206 79.5639C418.027 81.1807 419.34 82.387 420.994 82.6367L421.166 81.5017ZM417.41 73.7859C417.64 71.7922 418.392 70.0993 419.388 68.9685C420.385 67.8368 421.58 67.3084 422.745 67.4843L422.918 66.3493C421.257 66.0985 419.698 66.8798 418.526 68.2105C417.353 69.5422 416.522 71.4644 416.268 73.655L417.41 73.7859ZM422.745 67.4843C424.276 67.7155 425.886 68.8454 426.578 70.6904L427.653 70.2869C426.81 68.0392 424.846 66.6405 422.918 66.3493L422.745 67.4843ZM432.691 71.4282C431.264 69.9911 429.028 69.17 426.917 69.9504L427.314 71.0269C428.904 70.4396 430.683 71.0359 431.875 72.237L432.691 71.4282ZM432.21 81.8244C433.495 80.1497 434.205 78.1676 434.307 76.3046C434.409 74.4469 433.907 72.6521 432.691 71.4282L431.875 72.237C432.801 73.1686 433.25 74.6101 433.16 76.2425C433.071 77.8694 432.446 79.6309 431.298 81.1262L432.21 81.8244ZM423.064 83.7164C424.293 84.954 425.966 85.3195 427.627 84.951C429.279 84.5847 430.925 83.498 432.21 81.8244L431.298 81.1262C430.15 82.6225 428.725 83.532 427.379 83.8304C426.043 84.1267 424.791 83.8256 423.88 82.9076L423.064 83.7164ZM421.98 82.64C422.289 83.0405 422.668 83.4169 423.12 83.7663L423.823 82.8578C423.441 82.5628 423.134 82.255 422.891 81.9393L421.98 82.64Z" fill="white" mask="url(#path-11-inside-1_108_6025)"/>
<path d="M420.268 70.2566C420.911 69.165 421.891 68.7175 422.689 68.8058" stroke="white" stroke-width="0.918656" stroke-linecap="round"/>
<path d="M429.058 64.748C427.993 65.2556 427.193 66.8372 426.974 67.7663C428.727 69.16 429.89 68.8477 430.766 68.1954C431.752 67.4611 432.11 66.215 432.188 65.0629C431.37 64.6457 430.239 64.1844 429.058 64.748Z" fill="white"/>
<path d="M426.912 70.7433C427.671 69.6144 427.701 66.2745 425.212 64.6394" stroke="white" stroke-width="1.14832" stroke-linecap="round"/>
</g>
<g opacity="0.6">
<mask id="path-16-inside-2_108_6025" fill="white">
<path fill-rule="evenodd" clip-rule="evenodd" d="M139.909 61.7557C138.141 60.6177 135.962 60.864 134.384 61.8995C131.803 63.5927 131.261 68.0629 133.173 71.8839C135.085 75.7048 138.727 77.4297 141.307 75.7365C141.795 75.5056 142.209 75.2363 142.558 74.9343C142.984 75.0306 143.456 75.0656 143.979 75.0308C146.948 75.2687 149.571 71.902 149.836 67.5111C150.102 63.1201 147.91 59.3678 144.941 59.13C143.124 58.9845 141.067 59.8494 139.909 61.7557Z"/>
</mask>
<path d="M134.384 61.8995L134.055 61.3987L134.384 61.8995ZM139.909 61.7557L139.585 62.2592L140.102 62.5923L140.421 62.0668L139.909 61.7557ZM133.173 71.8839L132.637 72.1515L133.173 71.8839ZM141.307 75.7365L141.051 75.1952L141.013 75.2129L140.978 75.2357L141.307 75.7365ZM142.558 74.9343L142.689 74.3501L142.394 74.2832L142.165 74.4817L142.558 74.9343ZM143.979 75.0308L144.026 74.4338L143.982 74.4303L143.938 74.4332L143.979 75.0308ZM149.836 67.5111L149.238 67.4745L149.238 67.4745L149.836 67.5111ZM144.941 59.13L144.893 59.727L144.893 59.727L144.941 59.13ZM134.713 62.4003C136.131 61.4695 138.052 61.2726 139.585 62.2592L140.233 61.2522C138.23 59.9628 135.793 60.2584 134.055 61.3987L134.713 62.4003ZM133.709 71.6162C132.803 69.8054 132.484 67.8505 132.688 66.1663C132.894 64.4749 133.614 63.1216 134.713 62.4003L134.055 61.3987C132.573 62.3706 131.732 64.099 131.499 66.0212C131.265 67.9506 131.631 70.1413 132.637 72.1515L133.709 71.6162ZM140.978 75.2357C139.897 75.9455 138.569 75.9634 137.246 75.3367C135.915 74.7065 134.615 73.4284 133.709 71.6162L132.637 72.1515C133.642 74.1603 135.12 75.6551 136.733 76.4193C138.354 77.187 140.137 77.2208 141.636 76.2373L140.978 75.2357ZM142.165 74.4817C141.861 74.7448 141.494 74.9853 141.051 75.1952L141.564 76.2778C142.096 76.0259 142.557 75.7278 142.95 75.3869L142.165 74.4817ZM142.426 75.5185C142.915 75.6291 143.446 75.6667 144.019 75.6285L143.938 74.4332C143.466 74.4646 143.052 74.4322 142.689 74.3501L142.426 75.5185ZM143.931 75.6279C145.675 75.7676 147.251 74.8419 148.394 73.3749C149.539 71.9059 150.295 69.8463 150.435 67.5476L149.238 67.4745C149.112 69.5667 148.424 71.3859 147.449 72.6385C146.471 73.8932 145.251 74.5319 144.026 74.4338L143.931 75.6279ZM150.435 67.5476C150.574 65.2486 150.072 63.0924 149.119 61.4614C148.169 59.835 146.729 58.6723 144.988 58.5329L144.893 59.727C146.123 59.8255 147.263 60.6579 148.084 62.0649C148.904 63.4672 149.365 65.3826 149.238 67.4745L150.435 67.5476ZM144.988 58.5329C142.96 58.3704 140.679 59.3332 139.397 61.4446L140.421 62.0668C141.454 60.3657 143.288 59.5985 144.893 59.727L144.988 58.5329Z" fill="white" mask="url(#path-16-inside-2_108_6025)"/>
<path d="M134.105 66.5263C134.035 65.1545 134.601 64.0734 135.311 63.5688" stroke="white" stroke-width="0.958521" stroke-linecap="round"/>
<path d="M138.352 55.5861C137.75 56.7783 137.96 58.6701 138.292 59.5995C140.518 59.4854 141.309 58.3842 141.676 57.2084C142.088 55.8847 141.696 54.5918 141.124 53.5794C140.214 53.826 139.021 54.2624 138.352 55.5861Z" fill="white"/>
<path d="M139.886 62.115C139.892 60.629 138.07 57.837 135.101 58.2837" stroke="white" stroke-width="1.19815" stroke-linecap="round"/>
</g>
<g opacity="0.6">
<mask id="path-21-inside-3_108_6025" fill="white">
<path fill-rule="evenodd" clip-rule="evenodd" d="M277.997 14.7271C276.409 13.8715 274.541 14.2417 273.236 15.2498C271.103 16.8975 270.882 20.7934 272.742 23.9516C274.603 27.1098 277.84 28.3343 279.973 26.6866C280.379 26.4531 280.72 26.1918 281.004 25.9073C281.378 25.9605 281.788 25.9568 282.239 25.8886C284.811 25.879 286.886 22.783 286.873 18.9734C286.859 15.1638 284.763 12.0834 282.19 12.093C280.616 12.0988 278.889 12.9956 277.997 14.7271Z"/>
</mask>
<path d="M273.236 15.2498L273.553 15.6598L273.236 15.2498ZM277.997 14.7271L277.751 15.1831L278.216 15.4336L278.457 14.9646L277.997 14.7271ZM272.742 23.9516L273.189 23.689L272.742 23.9516ZM279.973 26.6866L279.714 26.2375L279.683 26.2551L279.656 26.2766L279.973 26.6866ZM281.004 25.9073L281.076 25.3944L280.819 25.3579L280.636 25.5418L281.004 25.9073ZM282.239 25.8886L282.237 25.3705L282.199 25.3706L282.161 25.3763L282.239 25.8886ZM282.19 12.093L282.193 12.6111L282.19 12.093ZM273.553 15.6598C274.731 14.7494 276.38 14.4443 277.751 15.1831L278.242 14.2711C276.437 13.2987 274.35 13.7339 272.919 14.8398L273.553 15.6598ZM273.189 23.689C272.309 22.1947 271.926 20.5324 272.009 19.064C272.093 17.5898 272.639 16.3655 273.553 15.6598L272.919 14.8398C271.699 15.7818 271.069 17.3293 270.974 19.0046C270.879 20.6856 271.315 22.5504 272.296 24.2142L273.189 23.689ZM279.656 26.2766C278.756 26.9711 277.61 27.0801 276.438 26.6368C275.259 26.1906 274.07 25.1846 273.189 23.689L272.296 24.2142C273.275 25.8769 274.635 27.0622 276.072 27.6059C277.517 28.1525 279.056 28.0498 280.29 27.0967L279.656 26.2766ZM280.636 25.5418C280.388 25.7908 280.084 26.0247 279.714 26.2375L280.231 27.1358C280.674 26.8814 281.053 26.5929 281.371 26.2729L280.636 25.5418ZM280.931 26.4203C281.361 26.4814 281.823 26.4756 282.317 26.4009L282.161 25.3763C281.754 25.438 281.394 25.4396 281.076 25.3944L280.931 26.4203ZM282.241 26.4067C283.752 26.4011 285.055 25.4894 285.956 24.1445C286.86 22.7965 287.398 20.9661 287.391 18.972L286.354 18.9748C286.361 20.7903 285.868 22.4127 285.095 23.5675C284.319 24.7254 283.299 25.3665 282.237 25.3705L282.241 26.4067ZM287.391 18.972C287.384 16.9779 286.833 15.1514 285.92 13.8098C285.009 12.4713 283.699 11.5692 282.188 11.5749L282.193 12.6111C283.255 12.6071 284.279 13.2404 285.063 14.3921C285.844 15.5409 286.348 17.1593 286.354 18.9748L287.391 18.972ZM282.188 11.5749C280.429 11.5814 278.521 12.5783 277.536 14.4896L278.457 14.9646C279.257 13.4129 280.802 12.6162 282.193 12.6111L282.188 11.5749Z" fill="white" mask="url(#path-21-inside-3_108_6025)"/>
<path d="M273.251 19.2628C273.115 18.0843 273.543 17.1106 274.128 16.6238" stroke="white" stroke-width="0.829167" stroke-linecap="round"/>
<path d="M276.312 9.51732C275.858 10.5895 276.144 12.2065 276.482 12.9843C278.395 12.7248 279.018 11.7174 279.269 10.6764C279.551 9.50452 279.142 8.41738 278.592 7.58534C277.821 7.864 276.816 8.32686 276.312 9.51732Z" fill="white"/>
<path d="M277.996 15.0382C277.919 13.7557 276.193 11.4788 273.656 12.0791" stroke="white" stroke-width="1.03646" stroke-linecap="round"/>
</g>
<g opacity="0.6">
<mask id="path-26-inside-4_108_6025" fill="white">
<path fill-rule="evenodd" clip-rule="evenodd" d="M26.1693 136.323C25.732 136.34 25.2573 136.286 24.7424 136.153C21.7682 135.832 19.6528 132.002 20.0174 127.598C20.3821 123.193 23.0888 119.884 26.063 120.204C27.8836 120.401 29.7983 121.646 30.6714 123.755C32.5865 122.957 34.7128 123.61 36.1296 124.933C38.4451 127.095 38.3432 131.627 35.9022 135.056C33.4612 138.484 29.6053 139.511 27.2899 137.349C26.8416 137.03 26.4706 136.686 26.1693 136.323Z"/>
</mask>
<path d="M26.1693 136.323L26.6328 135.939L26.4435 135.711L26.1471 135.722L26.1693 136.323ZM24.7424 136.153L24.8936 135.57L24.8511 135.559L24.8074 135.555L24.7424 136.153ZM20.0174 127.598L19.4175 127.548L20.0174 127.598ZM26.063 120.204L25.9979 120.803L26.063 120.204ZM30.6714 123.755L30.1151 123.986L30.3457 124.543L30.9029 124.311L30.6714 123.755ZM36.1296 124.933L36.5408 124.493L36.1296 124.933ZM35.9022 135.056L35.4118 134.707L35.9022 135.056ZM27.2899 137.349L27.7011 136.909L27.6719 136.882L27.6394 136.858L27.2899 137.349ZM26.1471 135.722C25.7758 135.736 25.3598 135.691 24.8936 135.57L24.5911 136.735C25.1548 136.881 25.6882 136.943 26.1915 136.924L26.1471 135.722ZM24.8074 135.555C23.5757 135.422 22.449 134.553 21.6549 133.115C20.8637 131.683 20.4436 129.745 20.6174 127.647L19.4175 127.548C19.2266 129.854 19.6818 132.033 20.6007 133.697C21.5167 135.356 22.9349 136.563 24.6773 136.751L24.8074 135.555ZM20.6174 127.647C20.7912 125.548 21.5215 123.74 22.5277 122.51C23.5352 121.277 24.7718 120.67 25.9979 120.803L26.128 119.606C24.3799 119.418 22.7761 120.305 21.5956 121.749C20.4137 123.194 19.6084 125.243 19.4175 127.548L20.6174 127.647ZM25.9979 120.803C27.6079 120.976 29.3292 122.087 30.1151 123.986L31.2278 123.525C30.2675 121.205 28.1593 119.826 26.128 119.606L25.9979 120.803ZM36.5408 124.493C34.9942 123.049 32.6231 122.29 30.4399 123.2L30.9029 124.311C32.55 123.624 34.4313 124.171 35.7184 125.373L36.5408 124.493ZM36.3926 135.404C37.6811 133.595 38.3575 131.488 38.4014 129.533C38.4452 127.583 37.8581 125.723 36.5408 124.493L35.7184 125.373C36.7166 126.305 37.2363 127.792 37.1977 129.506C37.1594 131.215 36.5643 133.089 35.4118 134.707L36.3926 135.404ZM26.8787 137.788C28.211 139.032 29.9772 139.34 31.7035 138.88C33.4197 138.423 35.105 137.213 36.3926 135.404L35.4118 134.707C34.2584 136.327 32.7952 137.345 31.3944 137.717C30.0037 138.088 28.6842 137.827 27.7011 136.909L26.8787 137.788ZM25.7058 136.708C26.0434 137.114 26.4537 137.492 26.9404 137.839L27.6394 136.858C27.2296 136.567 26.8979 136.258 26.6328 135.939L25.7058 136.708Z" fill="white" mask="url(#path-26-inside-4_108_6025)"/>
<path d="M23.4903 123.818C24.1272 122.646 25.1383 122.133 25.9766 122.19" stroke="white" stroke-width="0.962841" stroke-linecap="round"/>
<path d="M32.5097 117.658C31.4121 118.237 30.6274 119.929 30.4296 120.912C32.3134 122.294 33.5205 121.915 34.4161 121.193C35.4243 120.38 35.7568 119.059 35.7996 117.848C34.9284 117.448 33.7285 117.015 32.5097 117.658Z" fill="white"/>
<path d="M30.4659 124.032C31.2222 122.816 31.1403 119.317 28.479 117.715" stroke="white" stroke-width="1.20355" stroke-linecap="round"/>
</g>
<g opacity="0.6">
<path d="M340.761 172.382C339.598 173.194 338.912 175.204 338.801 176.333C341.066 177.6 342.374 176.996 343.295 176.055C344.331 174.995 344.554 173.467 344.465 172.107C343.445 171.788 342.053 171.482 340.761 172.382Z" fill="white"/>
<path d="M339.196 179.818C339.906 178.345 339.418 174.442 336.254 173.045" stroke="white" stroke-width="1.35603" stroke-linecap="round"/>
</g>
<g opacity="0.6">
<path d="M72.0454 40.6889C72.9245 41.0174 73.8095 40.8365 74.0904 40.6059C73.5176 39.9541 72.9283 39.0867 72.3839 38.4938C72.1416 38.23 70.7123 39.2311 70.0583 39.3108C70.3579 39.6873 71.3311 40.422 72.0454 40.6889Z" stroke="white" stroke-width="0.672064"/>
<path d="M81.2888 30.2415C81.9648 31.9699 81.8597 33.8101 81.5605 34.428C80.1987 32.5752 78.6744 31.2542 78.1841 30.8634C77.6966 30.4749 79.2838 28.6862 78.7846 26.4582C79.4212 26.9957 80.7394 28.8368 81.2888 30.2415Z" stroke="white" stroke-width="0.672064"/>
<path d="M73.9355 29.4295L73.6303 29.2886L73.4134 29.7575L73.9303 29.7653L73.9355 29.4295ZM72.8051 23.4042L73.0714 23.1992L72.8616 22.9273L72.594 23.1428L72.8051 23.4042ZM84.6798 44.9218L84.6904 45.2575L85.0218 45.247L85.016 44.9159L84.6798 44.9218ZM70.8376 33.1837L70.5029 33.2158L70.5029 33.2158L70.8376 33.1837ZM70.8114 32.7655L71.1475 32.7562L71.1347 32.2936L70.6983 32.4492L70.8114 32.7655ZM65.8896 31.3293L65.5975 31.1629L65.4667 31.392L65.6585 31.5733L65.8896 31.3293ZM70.9089 28.985L70.7889 29.2987L71.3985 29.5313L71.2343 28.9005L70.9089 28.985ZM74.2407 29.5704C75.1658 27.5709 74.4145 24.9396 73.0714 23.1992L72.5388 23.6092C73.7963 25.2388 74.4109 27.6013 73.6303 29.2886L74.2407 29.5704ZM85.016 44.9159C84.9267 39.8046 83.224 35.8729 81.0143 33.2064C78.8147 30.5521 76.0879 29.1264 73.9406 29.0937L73.9303 29.7653C75.8193 29.7941 78.3767 31.0769 80.4962 33.6347C82.6056 36.1802 84.2569 39.9638 84.3436 44.9277L85.016 44.9159ZM70.5029 33.2158C71.2723 41.2275 78.4724 45.4542 84.6904 45.2575L84.6692 44.5861C78.7159 44.7745 71.8998 40.7279 71.1723 33.1516L70.5029 33.2158ZM70.4753 32.7748C70.4793 32.918 70.4884 33.065 70.5029 33.2158L71.1723 33.1516C71.1592 33.0153 71.151 32.8835 71.1475 32.7562L70.4753 32.7748ZM70.6983 32.4492C69.5419 32.8617 67.8373 32.7077 66.1207 31.0854L65.6585 31.5733C67.5353 33.347 69.5004 33.5897 70.9244 33.0818L70.6983 32.4492ZM66.1816 31.4957C67.1885 29.7325 69.0571 28.6381 70.7889 29.2987L71.0288 28.6713C68.8558 27.8423 66.6877 29.2539 65.5975 31.1629L66.1816 31.4957ZM72.594 23.1428C70.4671 24.8559 70.135 27.3466 70.5835 29.0695L71.2343 28.9005C70.8391 27.3824 71.1329 25.1825 73.0161 23.6656L72.594 23.1428Z" fill="white"/>
<ellipse cx="0.978931" cy="0.83672" rx="0.978931" ry="0.83672" transform="matrix(0.272107 0.961747 -0.962787 0.272106 82.7969 40.5588)" fill="white"/>
<path d="M81.5031 37.2391C80.2599 37.3681 77.9137 38.4593 78.4748 41.7922" stroke="white" stroke-width="0.672064" stroke-linecap="round"/>
</g>
<g opacity="0.6">
<path d="M184.371 112.461C184.734 111.571 184.682 110.581 184.524 110.234C183.93 110.732 183.159 111.208 182.616 111.687C182.375 111.9 183.038 113.631 183.032 114.353C183.372 114.099 184.076 113.183 184.371 112.461Z" stroke="white" stroke-width="0.490067"/>
<path d="M176.843 100.526C178.326 100.116 179.817 100.572 180.289 101.01C178.63 102.138 177.387 103.541 177.016 103.999C176.646 104.453 175.358 102.405 173.486 102.53C173.993 101.942 175.637 100.859 176.843 100.526Z" stroke="white" stroke-width="0.490067"/>
<path d="M175.386 108.326L175.223 108.509L175.577 108.826L175.63 108.354L175.386 108.326ZM170.348 108.429L170.205 108.231L170.043 108.347L170.124 108.529L170.348 108.429ZM189.189 99.59L189.434 99.6085L189.45 99.3933L189.238 99.3501L189.189 99.59ZM178.116 112.371L178.141 112.128L178.116 112.371ZM177.772 112.322L177.817 112.081L177.474 112.016L177.529 112.36L177.772 112.322ZM176.069 117.378L175.89 117.546L176.066 117.733L176.245 117.549L176.069 117.378ZM174.697 111.517L174.923 111.61L175.083 111.227L174.669 111.273L174.697 111.517ZM175.55 108.144C174.021 106.776 171.775 107.098 170.205 108.231L170.492 108.628C171.952 107.575 173.927 107.349 175.223 108.509L175.55 108.144ZM189.238 99.3501C180.837 97.6357 175.641 103.822 175.143 108.299L175.63 108.354C176.1 104.127 181.055 98.1801 189.14 99.83L189.238 99.3501ZM178.092 112.615C181.418 112.945 184.137 111.348 186.075 108.851C188.01 106.358 189.181 102.955 189.434 99.6085L188.945 99.5716C188.698 102.839 187.554 106.146 185.688 108.551C183.825 110.951 181.257 112.437 178.141 112.128L178.092 112.615ZM177.726 112.562C177.844 112.585 177.966 112.602 178.092 112.615L178.141 112.128C178.029 112.116 177.921 112.101 177.817 112.081L177.726 112.562ZM177.529 112.36C177.756 113.772 177.415 115.64 175.893 117.208L176.245 117.549C177.884 115.86 178.262 113.833 178.014 112.283L177.529 112.36ZM176.248 117.211C174.907 115.783 174.153 113.468 174.923 111.61L174.47 111.423C173.605 113.51 174.461 116.024 175.89 117.546L176.248 117.211ZM170.124 108.529C171.263 111.08 173.236 111.928 174.725 111.76L174.669 111.273C173.422 111.414 171.636 110.713 170.572 108.33L170.124 108.529Z" fill="white"/>
<ellipse cx="0.804512" cy="0.919145" rx="0.804512" ry="0.919145" transform="matrix(0.990557 -0.140486 0.107639 0.993699 185.425 100.812)" fill="white"/>
<path d="M182.576 101.594C182.548 102.962 183.185 105.701 185.966 105.714" stroke="white" stroke-width="0.490067" stroke-linecap="round"/>
</g>
<g opacity="0.6">
<path d="M326.447 93.8578C326.015 92.4186 326.238 90.9018 326.531 90.3974C327.374 91.2772 328.495 92.1562 329.262 92.9958C329.604 93.3695 328.334 95.9131 328.239 97.0267C327.752 96.5713 326.798 95.0273 326.447 93.8578Z" stroke="white" stroke-width="0.815024"/>
<path d="M339.762 76.8815C337.535 75.9704 335.172 76.3917 334.382 76.9784C336.777 79.0295 338.49 81.4255 338.998 82.2008C339.502 82.9715 341.782 80.0571 344.649 80.6037C343.952 79.6012 341.572 77.6219 339.762 76.8815Z" stroke="white" stroke-width="0.815024"/>
<path d="M340.886 89.1795L341.124 89.5108L340.493 89.9611L340.479 89.1869L340.886 89.1795ZM348.639 90.2868L348.912 89.9848L349.155 90.2043L348.993 90.4884L348.639 90.2868ZM320.869 73.1111L320.462 73.104L320.468 72.7347L320.837 72.7051L320.869 73.1111ZM336.099 94.9028L336.09 95.31L336.09 95.31L336.099 94.9028ZM336.637 94.8915L336.61 94.4852L337.173 94.4474L337.032 94.993L336.637 94.8915ZM338.537 103.003L338.802 103.312L338.479 103.589L338.216 103.254L338.537 103.003ZM341.492 94.2251L341.102 94.3443L340.893 93.664L341.586 93.8289L341.492 94.2251ZM340.649 88.8482C343.225 87.0094 346.656 87.9446 348.912 89.9848L348.365 90.5887C346.264 88.6887 343.264 87.9824 341.124 89.5108L340.649 88.8482ZM320.837 72.7051C334.043 71.6448 341.167 82.1684 341.294 89.1721L340.479 89.1869C340.359 82.5905 333.58 72.4992 320.902 73.5171L320.837 72.7051ZM336.09 95.31C330.907 95.1916 326.943 92.211 324.314 87.9954C321.688 83.7858 320.371 78.3152 320.462 73.104L321.277 73.1182C321.188 78.1975 322.476 83.5083 325.006 87.5647C327.532 91.615 331.272 94.3851 336.109 94.4957L336.09 95.31ZM336.665 95.2979C336.478 95.3104 336.286 95.3145 336.09 95.31L336.109 94.4957C336.282 94.4996 336.449 94.496 336.61 94.4852L336.665 95.2979ZM337.032 94.993C336.485 97.1163 336.74 100.052 338.858 102.751L338.216 103.254C335.931 100.342 335.636 97.1414 336.242 94.79L337.032 94.993ZM338.271 102.694C340.531 100.756 342.02 97.3432 341.102 94.3443L341.882 94.1059C342.92 97.4962 341.236 101.225 338.802 103.312L338.271 102.694ZM348.993 90.4884C346.862 94.2233 343.679 95.1645 341.397 94.6213L341.586 93.8289C343.476 94.2788 346.311 93.5425 348.284 90.0851L348.993 90.4884Z" fill="white"/>
<ellipse cx="1.25425" cy="1.41835" rx="1.25425" ry="1.41835" transform="matrix(-0.966455 -0.258691 -0.19986 0.979301 326.494 75.7056)" fill="white"/>
<path d="M330.772 77.4481C330.62 79.5622 329.245 83.6642 324.958 83.1597" stroke="white" stroke-width="0.815024" stroke-linecap="round"/>
</g>
<path d="M32.1196 53.5244L33.5342 57.3475L37.3573 58.7621L33.5342 60.1768L32.1196 63.9999L30.7049 60.1768L26.8818 58.7621L30.7049 57.3475L32.1196 53.5244Z" fill="#92DCAC"/>
<path d="M305.19 110.5L306.167 113.142L308.808 114.119L306.167 115.096L305.19 117.738L304.213 115.096L301.571 114.119L304.213 113.142L305.19 110.5Z" fill="#92DCAC"/>
<path d="M383.649 105.705L385.209 109.92L389.424 111.48L385.209 113.04L383.649 117.256L382.089 113.04L377.873 111.48L382.089 109.92L383.649 105.705Z" fill="#92DCAC"/>
<path opacity="0.5" d="M153.536 94.7861C142.493 124.601 98.9579 120.831 106.296 96.8588C109.725 85.6561 125.983 87.2192 126.219 99.8897C126.452 112.416 108.921 114.98 100.055 108.01C89.3188 99.5691 87.0356 81.891 87.0356 81.891" stroke="white" stroke-width="0.48078" stroke-dasharray="1.92 1.92"/>
<path opacity="0.5" d="M33.6445 54.75C16.4913 84.0434 -15.6231 63.243 -3.9179 44.7019C1.55209 36.0375 14.9113 41.0952 12.1965 51.8412C9.51275 62.4646 -5.8703 60.5966 -11.7486 52.6762" stroke="white" stroke-width="0.420489" stroke-dasharray="1.68 1.68"/>
</g>
</g>
<defs>
<clipPath id="clip0_108_6025">
<rect width="430" height="197" fill="white"/>
</clipPath>
</defs>
</svg>
