<svg width="21" height="22" viewBox="0 0 21 22" fill="none" xmlns="http://www.w3.org/2000/svg">
<path d="M9.25 12H14.25M6.25 12H6.25898M11.25 16H6.25M14.25 16H14.241" stroke="#C9CEDC" stroke-width="1.5" stroke-linecap="round" stroke-linejoin="round"/>
<path d="M16.25 1V3M4.25 1V3" stroke="#C9CEDC" stroke-width="1.5" stroke-linecap="round" stroke-linejoin="round"/>
<path d="M0.75 11.2432C0.75 6.88594 0.75 4.70728 2.00212 3.35364C3.25424 2 5.26949 2 9.3 2H11.2C15.2305 2 17.2458 2 18.4979 3.35364C19.75 4.70728 19.75 6.88594 19.75 11.2432V11.7568C19.75 16.1141 19.75 18.2927 18.4979 19.6464C17.2458 21 15.2305 21 11.2 21H9.3C5.26949 21 3.25424 21 2.00212 19.6464C0.75 18.2927 0.75 16.1141 0.75 11.7568V11.2432Z" stroke="#C9CEDC" stroke-width="1.5" stroke-linecap="round" stroke-linejoin="round"/>
<path d="M1.25 7H19.25" stroke="#C9CEDC" stroke-width="1.5" stroke-linecap="round" stroke-linejoin="round"/>
</svg>
