<svg width="21" height="22" viewBox="0 0 21 22" fill="none" xmlns="http://www.w3.org/2000/svg">
<path d="M1.25 11C1.25 6.52166 1.25 4.28249 2.64124 2.89124C4.03249 1.5 6.27166 1.5 10.75 1.5C15.2283 1.5 17.4675 1.5 18.8588 2.89124C20.25 4.28249 20.25 6.52166 20.25 11C20.25 15.4783 20.25 17.7175 18.8588 19.1088C17.4675 20.5 15.2283 20.5 10.75 20.5C6.27166 20.5 4.03249 20.5 2.64124 19.1088C1.25 17.7175 1.25 15.4783 1.25 11Z" stroke="#C9CEDC" stroke-width="1.5"/>
<path d="M6.25 16C8.5817 13.5578 12.8932 13.4428 15.25 16M13.2451 8.5C13.2451 9.88071 12.1242 11 10.7415 11C9.35885 11 8.23797 9.88071 8.23797 8.5C8.23797 7.11929 9.35885 6 10.7415 6C12.1242 6 13.2451 7.11929 13.2451 8.5Z" stroke="#C9CEDC" stroke-width="1.5" stroke-linecap="round"/>
</svg>
