<svg id="single-02" xmlns="http://www.w3.org/2000/svg" width="19.111" height="22.933" viewBox="0 0 19.111 22.933">
  <path id="Path" d="M12.863,0A6.491,6.491,0,0,1,9.556.934,6.491,6.491,0,0,1,6.248,0,6.692,6.692,0,0,0,0,6.667V8.32l.664.213a31.816,31.816,0,0,0,8.891,1,31.816,31.816,0,0,0,8.891-1l.664-.213V6.667A6.692,6.692,0,0,0,12.863,0Z" transform="translate(0 13.4)" fill="#c8c8d3"/>
  <path id="Path-2" data-name="Path" d="M5.733,12.422c3.229,0,5.733-3.6,5.733-6.689A5.733,5.733,0,1,0,0,5.733C0,8.826,2.5,12.422,5.733,12.422Z" transform="translate(3.822)" fill="#c8c8d3"/>
</svg>
