<svg width="24" height="25" viewBox="0 0 24 25" fill="none" xmlns="http://www.w3.org/2000/svg">
<path d="M16.19 2.90918H7.81C4.17 2.90918 2 5.07918 2 8.71918V17.0992C2 20.7392 4.17 22.9092 7.81 22.9092H16.19C19.83 22.9092 22 20.7392 22 17.0992V8.71918C22 5.07918 19.83 2.90918 16.19 2.90918ZM9.97 15.8092L7.72 18.0592C7.57 18.2092 7.38 18.2792 7.19 18.2792C7 18.2792 6.8 18.2092 6.66 18.0592L5.91 17.3092C5.61 17.0192 5.61 16.5392 5.91 16.2492C6.2 15.9592 6.67 15.9592 6.97 16.2492L7.19 16.4692L8.91 14.7492C9.2 14.4592 9.67 14.4592 9.97 14.7492C10.26 15.0392 10.26 15.5192 9.97 15.8092ZM9.97 8.80918L7.72 11.0592C7.57 11.2092 7.38 11.2792 7.19 11.2792C7 11.2792 6.8 11.2092 6.66 11.0592L5.91 10.3092C5.61 10.0192 5.61 9.53918 5.91 9.24918C6.2 8.95918 6.67 8.95918 6.97 9.24918L7.19 9.46918L8.91 7.74918C9.2 7.45918 9.67 7.45918 9.97 7.74918C10.26 8.03918 10.26 8.51918 9.97 8.80918ZM17.56 17.5292H12.31C11.9 17.5292 11.56 17.1892 11.56 16.7792C11.56 16.3692 11.9 16.0292 12.31 16.0292H17.56C17.98 16.0292 18.31 16.3692 18.31 16.7792C18.31 17.1892 17.98 17.5292 17.56 17.5292ZM17.56 10.5292H12.31C11.9 10.5292 11.56 10.1892 11.56 9.77918C11.56 9.36918 11.9 9.02918 12.31 9.02918H17.56C17.98 9.02918 18.31 9.36918 18.31 9.77918C18.31 10.1892 17.98 10.5292 17.56 10.5292Z" fill="#25B858"/>
</svg>
