<svg width="16" height="18" viewBox="0 0 16 18" fill="none" xmlns="http://www.w3.org/2000/svg">
<path d="M13.8333 0.423828H2.16667C1.25 0.423828 0.5 1.17383 0.5 2.09049V13.7572C0.5 14.6738 1.25 15.4238 2.16667 15.4238H5.5L7.40833 17.3322C7.73333 17.6572 8.25833 17.6572 8.58333 17.3322L10.5 15.4238H13.8333C14.75 15.4238 15.5 14.6738 15.5 13.7572V2.09049C15.5 1.17383 14.75 0.423828 13.8333 0.423828ZM9.56667 9.4905L8 12.9238L6.43333 9.4905L3 7.92383L6.43333 6.35716L8 2.92383L9.56667 6.35716L13 7.92383L9.56667 9.4905Z" fill="#25B858"/>
</svg>
