<svg width="24" height="25" viewBox="0 0 24 25" fill="none" xmlns="http://www.w3.org/2000/svg">
<path d="M12.0001 18.2593C12.9003 18.2593 13.6301 17.5295 13.6301 16.6293C13.6301 15.729 12.9003 14.9993 12.0001 14.9993C11.0999 14.9993 10.3701 15.729 10.3701 16.6293C10.3701 17.5295 11.0999 18.2593 12.0001 18.2593Z" fill="#25B858"/>
<path d="M16.65 10.3492H7.35C7.27 10.3492 7.2 10.3492 7.12 10.3492V9.18918C7.12 6.25918 7.95 4.30918 12 4.30918C16.33 4.30918 16.88 6.41918 16.88 8.25918C16.88 8.64918 17.19 8.95918 17.58 8.95918C17.97 8.95918 18.28 8.64918 18.28 8.25918C18.28 4.70918 16.17 2.90918 12 2.90918C6.37 2.90918 5.72 6.48918 5.72 9.18918V10.4392C2.92 10.7892 2 12.2092 2 15.6992V17.5592C2 21.6592 3.25 22.9092 7.35 22.9092H16.65C20.75 22.9092 22 21.6592 22 17.5592V15.6992C22 11.5992 20.75 10.3492 16.65 10.3492ZM12 19.6492C10.33 19.6492 8.98 18.2892 8.98 16.6292C8.98 14.9592 10.34 13.6092 12 13.6092C13.66 13.6092 15.02 14.9692 15.02 16.6292C15.02 18.2992 13.67 19.6492 12 19.6492Z" fill="#25B858"/>
</svg>
