<svg width="32" height="25" viewBox="0 0 32 25" fill="none" xmlns="http://www.w3.org/2000/svg">
<g id="flag">
<mask id="mask0_132_4516" style="mask-type:luminance" maskUnits="userSpaceOnUse" x="0" y="0" width="32" height="25">
<rect id="mask" y="0.5" width="32" height="24" rx="6" fill="white"/>
</mask>
<g mask="url(#mask0_132_4516)">
<g id="contents">
<path id="middle" fill-rule="evenodd" clip-rule="evenodd" d="M0 0.5H32V24.5H0V0.5Z" fill="#F7FCFF"/>
<path id="Combined Shape" fill-rule="evenodd" clip-rule="evenodd" d="M0 15.1667V17.1667H32V15.1667H0Z" fill="#E31D1C"/>
<path id="Combined Shape_2" fill-rule="evenodd" clip-rule="evenodd" d="M0 18.8333V20.8333H32V18.8333H0Z" fill="#E31D1C"/>
<path id="Combined Shape_3" fill-rule="evenodd" clip-rule="evenodd" d="M0 7.83325V9.83325H32V7.83325H0Z" fill="#E31D1C"/>
<path id="Combined Shape_4" fill-rule="evenodd" clip-rule="evenodd" d="M0 22.5V24.5H32V22.5H0Z" fill="#E31D1C"/>
<path id="Combined Shape_5" fill-rule="evenodd" clip-rule="evenodd" d="M0 11.5V13.5H32V11.5H0Z" fill="#E31D1C"/>
<path id="Combined Shape_6" fill-rule="evenodd" clip-rule="evenodd" d="M0 0.5V2.5H32V0.5H0Z" fill="#E31D1C"/>
<path id="Combined Shape_7" fill-rule="evenodd" clip-rule="evenodd" d="M0 4.16675V6.16675H32V4.16675H0Z" fill="#E31D1C"/>
<rect id="Rectangle 82" y="0.5" width="20" height="13" fill="#2E42A5"/>
<path id="Combined Shape_8" fill-rule="evenodd" clip-rule="evenodd" d="M1.72221 3.43871L0.996331 3.94759L1.2414 3.04198L0.59668 2.46807H1.43877L1.7212 1.729L2.05237 2.46807H2.77022L2.20619 3.04198L2.42455 3.94759L1.72221 3.43871ZM5.72221 3.43871L4.99633 3.94759L5.2414 3.04198L4.59668 2.46807H5.43877L5.7212 1.729L6.05237 2.46807H6.77022L6.20619 3.04198L6.42455 3.94759L5.72221 3.43871ZM8.99633 3.94759L9.72221 3.43871L10.4245 3.94759L10.2062 3.04198L10.7702 2.46807H10.0524L9.7212 1.729L9.43877 2.46807H8.59668L9.2414 3.04198L8.99633 3.94759ZM13.7222 3.43871L12.9963 3.94759L13.2414 3.04198L12.5967 2.46807H13.4388L13.7212 1.729L14.0524 2.46807H14.7702L14.2062 3.04198L14.4245 3.94759L13.7222 3.43871ZM0.996331 7.94759L1.72221 7.43871L2.42455 7.94759L2.20619 7.04198L2.77022 6.46807H2.05237L1.7212 5.729L1.43877 6.46807H0.59668L1.2414 7.04198L0.996331 7.94759ZM5.72221 7.43871L4.99633 7.94759L5.2414 7.04198L4.59668 6.46807H5.43877L5.7212 5.729L6.05237 6.46807H6.77022L6.20619 7.04198L6.42455 7.94759L5.72221 7.43871ZM8.99633 7.94759L9.72221 7.43871L10.4245 7.94759L10.2062 7.04198L10.7702 6.46807H10.0524L9.7212 5.729L9.43877 6.46807H8.59668L9.2414 7.04198L8.99633 7.94759ZM13.7222 7.43871L12.9963 7.94759L13.2414 7.04198L12.5967 6.46807H13.4388L13.7212 5.729L14.0524 6.46807H14.7702L14.2062 7.04198L14.4245 7.94759L13.7222 7.43871ZM0.996331 11.9476L1.72221 11.4387L2.42455 11.9476L2.20619 11.042L2.77022 10.4681H2.05237L1.7212 9.729L1.43877 10.4681H0.59668L1.2414 11.042L0.996331 11.9476ZM5.72221 11.4387L4.99633 11.9476L5.2414 11.042L4.59668 10.4681H5.43877L5.7212 9.729L6.05237 10.4681H6.77022L6.20619 11.042L6.42455 11.9476L5.72221 11.4387ZM8.99633 11.9476L9.72221 11.4387L10.4245 11.9476L10.2062 11.042L10.7702 10.4681H10.0524L9.7212 9.729L9.43877 10.4681H8.59668L9.2414 11.042L8.99633 11.9476ZM13.7222 11.4387L12.9963 11.9476L13.2414 11.042L12.5967 10.4681H13.4388L13.7212 9.729L14.0524 10.4681H14.7702L14.2062 11.042L14.4245 11.9476L13.7222 11.4387ZM16.9963 3.94759L17.7222 3.43871L18.4245 3.94759L18.2062 3.04198L18.7702 2.46807H18.0524L17.7212 1.729L17.4388 2.46807H16.5967L17.2414 3.04198L16.9963 3.94759ZM17.7222 7.43871L16.9963 7.94759L17.2414 7.04198L16.5967 6.46807H17.4388L17.7212 5.729L18.0524 6.46807H18.7702L18.2062 7.04198L18.4245 7.94759L17.7222 7.43871ZM16.9963 11.9476L17.7222 11.4387L18.4245 11.9476L18.2062 11.042L18.7702 10.4681H18.0524L17.7212 9.729L17.4388 10.4681H16.5967L17.2414 11.042L16.9963 11.9476ZM3.72221 5.43871L2.99633 5.94759L3.2414 5.04198L2.59668 4.46807H3.43877L3.7212 3.729L4.05237 4.46807H4.77022L4.20619 5.04198L4.42455 5.94759L3.72221 5.43871ZM6.99633 5.94759L7.72221 5.43871L8.42455 5.94759L8.20619 5.04198L8.77022 4.46807H8.05237L7.7212 3.729L7.43877 4.46807H6.59668L7.2414 5.04198L6.99633 5.94759ZM11.7222 5.43871L10.9963 5.94759L11.2414 5.04198L10.5967 4.46807H11.4388L11.7212 3.729L12.0524 4.46807H12.7702L12.2062 5.04198L12.4245 5.94759L11.7222 5.43871ZM2.99633 9.94759L3.72221 9.43871L4.42455 9.94759L4.20619 9.04198L4.77022 8.46807H4.05237L3.7212 7.729L3.43877 8.46807H2.59668L3.2414 9.04198L2.99633 9.94759ZM7.72221 9.43871L6.99633 9.94759L7.2414 9.04198L6.59668 8.46807H7.43877L7.7212 7.729L8.05237 8.46807H8.77022L8.20619 9.04198L8.42455 9.94759L7.72221 9.43871ZM10.9963 9.94759L11.7222 9.43871L12.4245 9.94759L12.2062 9.04198L12.7702 8.46807H12.0524L11.7212 7.729L11.4388 8.46807H10.5967L11.2414 9.04198L10.9963 9.94759ZM15.7222 5.43871L14.9963 5.94759L15.2414 5.04198L14.5967 4.46807H15.4388L15.7212 3.729L16.0524 4.46807H16.7702L16.2062 5.04198L16.4245 5.94759L15.7222 5.43871ZM14.9963 9.94759L15.7222 9.43871L16.4245 9.94759L16.2062 9.04198L16.7702 8.46807H16.0524L15.7212 7.729L15.4388 8.46807H14.5967L15.2414 9.04198L14.9963 9.94759Z" fill="#F7FCFF"/>
</g>
</g>
</g>
</svg>
