<svg width="45" height="30" viewBox="0 0 45 30" fill="none" xmlns="http://www.w3.org/2000/svg">
<g clip-path="url(#clip0_2_103851)">
<path d="M28.4372 5.22656H16.5664V24.7697H28.4372V5.22656Z" fill="#FF5F00"/>
<path d="M17.7899 14.9967C17.7884 13.1148 18.2116 11.2573 19.0275 9.5647C19.8434 7.87208 21.0305 6.3887 22.4991 5.22682C20.6802 3.78593 18.4958 2.88992 16.1955 2.64121C13.8953 2.3925 11.5721 2.80111 9.49132 3.82035C7.41058 4.83959 5.6563 6.42833 4.42897 8.405C3.20164 10.3817 2.55078 12.6665 2.55078 14.9984C2.55078 17.3303 3.20164 19.6151 4.42897 21.5918C5.6563 23.5685 7.41058 25.1572 9.49132 26.1764C11.5721 27.1957 13.8953 27.6043 16.1955 27.3556C18.4958 27.1069 20.6802 26.2109 22.4991 24.77C21.0301 23.6077 19.8426 22.1238 19.0267 20.4305C18.2108 18.7373 17.7879 16.8791 17.7899 14.9967Z" fill="#EB001B"/>
<path d="M41.2695 22.7021V22.3016H41.4408V22.2188H41.0332V22.3016H41.1942V22.7021H41.2695ZM42.0607 22.7021V22.2188H41.9374L41.7935 22.564L41.6497 22.2188H41.5264V22.7021H41.6154V22.3361L41.749 22.6503H41.8415L41.9751 22.3361V22.7021H42.0607Z" fill="#F79E1B"/>
<path d="M42.4482 15.0016C42.4481 17.3336 41.7971 19.6186 40.5696 21.5953C39.342 23.5721 37.5875 25.1608 35.5065 26.1799C33.4255 27.199 31.102 27.6073 28.8016 27.3583C26.5013 27.1092 24.3168 26.2128 22.498 24.7714C23.9661 23.6085 25.1529 22.1247 25.969 20.432C26.7851 18.7393 27.2091 16.8818 27.2091 14.9998C27.2091 13.1178 26.7851 11.2604 25.969 9.56767C25.1529 7.87496 23.9661 6.39117 22.498 5.22826C24.3168 3.78692 26.5013 2.89048 28.8016 2.64141C31.102 2.39233 33.4255 2.80069 35.5065 3.81978C37.5875 4.83887 39.342 6.42759 40.5696 8.40432C41.7971 10.3811 42.4481 12.666 42.4482 14.9981V15.0016Z" fill="#F79E1B"/>
</g>
<defs>
<clipPath id="clip0_2_103851">
<rect width="45" height="30" fill="white"/>
</clipPath>
</defs>
</svg>
